<svg width="69" height="69" viewBox="0 0 69 69" fill="none" xmlns="http://www.w3.org/2000/svg">
<path d="M12.2843 68.8529C8.56993 65.1385 5.62355 60.729 3.61336 55.8759C1.60317 51.0229 0.568544 45.8215 0.568544 40.5686C0.568544 35.3157 1.60318 30.1143 3.61336 25.2613C5.62355 20.4082 8.56993 15.9987 12.2843 12.2843C15.9986 8.56999 20.4082 5.62361 25.2612 3.61342C30.1142 1.60323 35.3157 0.568605 40.5685 0.568603C45.8214 0.568606 51.0229 1.60324 55.8759 3.61342C60.7289 5.62361 65.1385 8.56999 68.8528 12.2843L58.1048 23.0324C55.8019 20.7295 53.068 18.9027 50.0591 17.6564C47.0502 16.4101 43.8253 15.7686 40.5685 15.7686C37.3118 15.7686 34.0869 16.4101 31.078 17.6564C28.0691 18.9027 25.3352 20.7295 23.0323 23.0324C20.7294 25.3352 18.9026 28.0692 17.6563 31.0781C16.41 34.0869 15.7685 37.3118 15.7685 40.5686C15.7685 43.8254 16.41 47.0503 17.6563 50.0592C18.9026 53.068 20.7294 55.802 23.0323 58.1049L12.2843 68.8529Z" fill="#D2CDDB"/>
</svg>
