<svg width="101" height="89" viewBox="0 0 101 89" fill="none" xmlns="http://www.w3.org/2000/svg">
<g clip-path="url(#clip0_681_50049)">
<path d="M62.4566 51.5415H25.8277C24.5855 51.5402 23.3947 51.0553 22.5164 50.1932C21.638 49.3311 21.144 48.1623 21.1426 46.9431V4.72123C21.144 3.50207 21.638 2.33324 22.5164 1.47117C23.3947 0.609098 24.5855 0.12418 25.8277 0.122803H59.9049L67.1416 5.78429V46.9431C67.1402 48.1623 66.6462 49.3311 65.7679 50.1932C64.8895 51.0553 63.6987 51.5402 62.4566 51.5415Z" fill="#E6E6E6"/>
<path d="M25.8277 1.44659C24.9431 1.44757 24.0951 1.79289 23.4696 2.40679C22.8442 3.02069 22.4923 3.85304 22.4913 4.72123V46.9431C22.4923 47.8113 22.8442 48.6437 23.4696 49.2576C24.0951 49.8715 24.9431 50.2168 25.8277 50.2178H62.4566C63.3411 50.2168 64.1892 49.8715 64.8146 49.2576C65.4401 48.6437 65.7919 47.8113 65.7929 46.9431V6.42203L59.4331 1.44659H25.8277Z" fill="white"/>
<path d="M55.3323 13.7236H38.6557C38.5532 13.7236 38.4518 13.7038 38.3571 13.6653C38.2625 13.6268 38.1764 13.5704 38.104 13.4993C38.0316 13.4282 37.9741 13.3438 37.9349 13.2509C37.8957 13.158 37.8755 13.0584 37.8755 12.9578C37.8755 12.8573 37.8957 12.7577 37.9349 12.6648C37.9741 12.5719 38.0316 12.4875 38.104 12.4163C38.1764 12.3452 38.2625 12.2888 38.3571 12.2504C38.4518 12.2119 38.5532 12.1921 38.6557 12.1921H55.3323C55.4348 12.1921 55.5362 12.2119 55.6309 12.2504C55.7255 12.2888 55.8115 12.3452 55.884 12.4163C55.9564 12.4875 56.0139 12.5719 56.0531 12.6648C56.0923 12.7577 56.1125 12.8573 56.1125 12.9578C56.1125 13.0584 56.0923 13.158 56.0531 13.2509C56.0139 13.3438 55.9564 13.4282 55.884 13.4993C55.8115 13.5704 55.7255 13.6268 55.6309 13.6653C55.5362 13.7038 55.4348 13.7236 55.3323 13.7236Z" fill="#CCCCCC"/>
<path d="M58.5506 16.308H38.6557C38.4488 16.308 38.2503 16.2273 38.104 16.0837C37.9577 15.9401 37.8755 15.7454 37.8755 15.5423C37.8755 15.3392 37.9577 15.1444 38.104 15.0008C38.2503 14.8572 38.4488 14.7765 38.6557 14.7765H58.5506C58.7575 14.7765 58.956 14.8572 59.1023 15.0008C59.2486 15.1444 59.3308 15.3392 59.3308 15.5423C59.3308 15.7454 59.2486 15.9401 59.1023 16.0837C58.956 16.2273 58.7575 16.308 58.5506 16.308Z" fill="#CCCCCC"/>
<path d="M55.3323 25.3057H38.6557C38.4488 25.3057 38.2503 25.225 38.104 25.0814C37.9577 24.9378 37.8755 24.7431 37.8755 24.54C37.8755 24.3369 37.9577 24.1421 38.104 23.9985C38.2503 23.8549 38.4488 23.7742 38.6557 23.7742H55.3323C55.5392 23.7742 55.7377 23.8549 55.884 23.9985C56.0303 24.1421 56.1125 24.3369 56.1125 24.54C56.1125 24.7431 56.0303 24.9378 55.884 25.0814C55.7377 25.225 55.5392 25.3057 55.3323 25.3057Z" fill="#CCCCCC"/>
<path d="M58.5506 27.8902H38.6557C38.4488 27.8902 38.2503 27.8095 38.104 27.6659C37.9577 27.5223 37.8755 27.3275 37.8755 27.1244C37.8755 26.9213 37.9577 26.7265 38.104 26.5829C38.2503 26.4393 38.4488 26.3586 38.6557 26.3586H58.5506C58.7575 26.3586 58.956 26.4393 59.1023 26.5829C59.2486 26.7265 59.3308 26.9213 59.3308 27.1244C59.3308 27.3275 59.2486 27.5223 59.1023 27.6659C58.956 27.8095 58.7575 27.8902 58.5506 27.8902Z" fill="#CCCCCC"/>
<path d="M55.3323 36.8878H38.6557C38.4488 36.8878 38.2503 36.8072 38.104 36.6636C37.9577 36.5199 37.8755 36.3252 37.8755 36.1221C37.8755 35.919 37.9577 35.7242 38.104 35.5806C38.2503 35.437 38.4488 35.3563 38.6557 35.3563H55.3323C55.5392 35.3563 55.7377 35.437 55.884 35.5806C56.0303 35.7242 56.1125 35.919 56.1125 36.1221C56.1125 36.3252 56.0303 36.5199 55.884 36.6636C55.7377 36.8072 55.5392 36.8878 55.3323 36.8878Z" fill="#CCCCCC"/>
<path d="M58.5506 39.4723H38.6557C38.4488 39.4723 38.2503 39.3916 38.104 39.248C37.9577 39.1044 37.8755 38.9096 37.8755 38.7065C37.8755 38.5034 37.9577 38.3087 38.104 38.1651C38.2503 38.0214 38.4488 37.9408 38.6557 37.9408H58.5506C58.7575 37.9408 58.956 38.0214 59.1023 38.1651C59.2486 38.3087 59.3308 38.5034 59.3308 38.7065C59.3308 38.9096 59.2486 39.1044 59.1023 39.248C58.956 39.3916 58.7575 39.4723 58.5506 39.4723Z" fill="#CCCCCC"/>
<path d="M31.711 16.9566C33.234 16.9566 34.4686 15.7448 34.4686 14.25C34.4686 12.7553 33.234 11.5435 31.711 11.5435C30.1881 11.5435 28.9535 12.7553 28.9535 14.25C28.9535 15.7448 30.1881 16.9566 31.711 16.9566Z" fill="#CE614A"/>
<path d="M31.4378 15.2825C31.3758 15.2826 31.3154 15.2629 31.2658 15.2264L31.2627 15.2241L30.6147 14.7375C30.5541 14.6919 30.5145 14.6245 30.5045 14.5503C30.4946 14.476 30.5151 14.4009 30.5615 14.3414C30.608 14.2819 30.6766 14.243 30.7522 14.2332C30.8279 14.2233 30.9045 14.2434 30.9651 14.2889L31.3849 14.6048L32.3768 13.3347C32.3998 13.3053 32.4285 13.2805 32.4612 13.262C32.4939 13.2434 32.5301 13.2314 32.5675 13.2265C32.605 13.2216 32.6431 13.2241 32.6796 13.2337C32.7161 13.2432 32.7504 13.2598 32.7804 13.2824L32.7805 13.2824L32.7743 13.2908L32.7806 13.2824C32.8412 13.3281 32.8808 13.3955 32.8907 13.4697C32.9007 13.544 32.8803 13.6192 32.8339 13.6787L31.6672 15.1719C31.6402 15.2064 31.6055 15.2342 31.5657 15.2533C31.526 15.2724 31.4823 15.2823 31.4381 15.2822L31.4378 15.2825Z" fill="white"/>
<path d="M31.995 28.5387C33.5179 28.5387 34.7525 27.327 34.7525 25.8322C34.7525 24.3374 33.5179 23.1256 31.995 23.1256C30.472 23.1256 29.2374 24.3374 29.2374 25.8322C29.2374 27.327 30.472 28.5387 31.995 28.5387Z" fill="#CCCCCC"/>
<path d="M31.711 40.1208C33.234 40.1208 34.4686 38.9091 34.4686 37.4143C34.4686 35.9195 33.234 34.7078 31.711 34.7078C30.1881 34.7078 28.9535 35.9195 28.9535 37.4143C28.9535 38.9091 30.1881 40.1208 31.711 40.1208Z" fill="#CCCCCC"/>
<path d="M67.0008 5.96648H61.332C60.9181 5.96648 60.5213 5.80513 60.2286 5.51791C59.936 5.2307 59.7716 4.84115 59.7716 4.43496V0.325504C59.7716 0.307512 59.7768 0.289883 59.7865 0.274642C59.7963 0.2594 59.8102 0.247161 59.8267 0.239329C59.8432 0.231496 59.8616 0.228387 59.8798 0.230358C59.898 0.232329 59.9153 0.239301 59.9297 0.250473L67.0614 5.79573C67.0772 5.80807 67.0888 5.82495 67.0944 5.84404C67.1001 5.86312 67.0996 5.88346 67.0929 5.90223C67.0863 5.921 67.0738 5.93727 67.0573 5.94878C67.0408 5.9603 67.0211 5.96648 67.0008 5.96648Z" fill="#E6E6E6"/>
<path d="M28.6267 59.4525L6.95519 63.936C6.32891 64.0649 5.67614 63.9446 5.14007 63.6017C4.60401 63.2587 4.22844 62.721 4.09576 62.1066L0.376963 44.7902C0.24569 44.1755 0.368202 43.5348 0.71762 43.0086C1.06704 42.4825 1.61483 42.1139 2.24081 41.9836L23.9123 37.5002C24.5386 37.3713 25.1914 37.4916 25.7274 37.8345C26.2635 38.1775 26.6391 38.7151 26.7717 39.3295L30.4905 56.646C30.6218 57.2607 30.4993 57.9014 30.1499 58.4275C29.8005 58.9537 29.2527 59.3223 28.6267 59.4525Z" fill="white"/>
<path d="M28.6267 59.4525L6.95519 63.936C6.32891 64.0649 5.67614 63.9446 5.14007 63.6017C4.60401 63.2587 4.22844 62.721 4.09576 62.1066L0.376963 44.7902C0.24569 44.1755 0.368202 43.5348 0.71762 43.0086C1.06704 42.4825 1.61483 42.1139 2.24081 41.9836L23.9123 37.5002C24.5386 37.3713 25.1914 37.4916 25.7274 37.8345C26.2635 38.1775 26.6391 38.7151 26.7717 39.3295L30.4905 56.646C30.6218 57.2607 30.4993 57.9014 30.1499 58.4275C29.8005 58.9537 29.2527 59.3223 28.6267 59.4525ZM2.29937 42.2563C1.74704 42.3712 1.2637 42.6965 0.955388 43.1607C0.647077 43.625 0.538976 44.1903 0.654801 44.7327L4.3736 62.0492C4.49068 62.5913 4.82206 63.0657 5.29506 63.3683C5.76805 63.6709 6.34403 63.777 6.89663 63.6633L28.5681 59.1798C29.1205 59.0649 29.6038 58.7397 29.9121 58.2754C30.2204 57.8112 30.3285 57.2459 30.2127 56.7035L26.4939 39.387C26.3768 38.8449 26.0454 38.3705 25.5725 38.0679C25.0995 37.7653 24.5235 37.6592 23.9709 37.7729L2.29937 42.2563Z" fill="#3F3D56"/>
<path d="M22.5658 43.2099L11.6285 45.4727C11.5328 45.4945 11.4322 45.4798 11.3471 45.4316C11.262 45.3834 11.1987 45.3053 11.17 45.2131C11.1569 45.165 11.1539 45.1147 11.1613 45.0655C11.1686 45.0162 11.186 44.9689 11.2126 44.9265C11.2391 44.884 11.2742 44.8473 11.3157 44.8187C11.3572 44.79 11.4041 44.7699 11.4538 44.7596L22.5873 42.4563C23.022 42.6967 22.8846 43.144 22.5657 43.2099L22.5658 43.2099Z" fill="#CCCCCC"/>
<path d="M22.9703 45.0929L12.0329 47.3557C11.9372 47.3775 11.8367 47.3628 11.7515 47.3146C11.6664 47.2664 11.6031 47.1883 11.5745 47.096C11.5613 47.0479 11.5584 46.9977 11.5657 46.9484C11.573 46.8992 11.5904 46.8519 11.617 46.8094C11.6435 46.767 11.6786 46.7303 11.7201 46.7016C11.7616 46.673 11.8086 46.6529 11.8582 46.6426L22.9917 44.3392C23.4264 44.5797 23.289 45.0269 22.9701 45.0929L22.9703 45.0929Z" fill="#CCCCCC"/>
<path d="M9.89879 48.9169L6.56083 49.6075C6.45182 49.6299 6.33819 49.609 6.24488 49.5493C6.15157 49.4896 6.0862 49.396 6.06312 49.2891L5.23283 45.4229C5.20997 45.3159 5.23129 45.2043 5.29211 45.1128C5.35293 45.0212 5.44829 44.957 5.55725 44.9344L8.89522 44.2438C9.00422 44.2214 9.11784 44.2423 9.21114 44.302C9.30444 44.3617 9.36981 44.4553 9.39293 44.5622L10.2232 48.4284C10.2461 48.5354 10.2248 48.6469 10.1639 48.7385C10.1031 48.8301 10.0078 48.8943 9.89879 48.9169V48.9169Z" fill="#CCCCCC"/>
<path d="M23.7664 48.9549L7.07407 52.4083C6.97836 52.4301 6.87779 52.4154 6.79268 52.3672C6.70757 52.319 6.64428 52.2409 6.6156 52.1487C6.60248 52.1006 6.59949 52.0504 6.60681 52.0011C6.61412 51.9518 6.63158 51.9045 6.65813 51.8621C6.68469 51.8196 6.71977 51.783 6.76124 51.7543C6.80271 51.7256 6.8497 51.7055 6.89935 51.6952L23.788 48.2012C24.2228 48.4417 24.0854 48.8889 23.7664 48.9549Z" fill="#CCCCCC"/>
<path d="M24.1709 50.8385L7.47849 54.2918C7.38278 54.3136 7.28221 54.2989 7.1971 54.2508C7.11199 54.2026 7.0487 54.1245 7.02002 54.0322C7.0069 53.9841 7.00391 53.9339 7.01122 53.8846C7.01854 53.8353 7.036 53.788 7.06255 53.7456C7.08911 53.7032 7.12419 53.6665 7.16566 53.6378C7.20713 53.6091 7.25412 53.589 7.30377 53.5788L24.1925 50.0848C24.6272 50.3252 24.4898 50.7725 24.1709 50.8385Z" fill="#CCCCCC"/>
<path d="M24.5752 52.7208L7.88279 56.1741C7.78707 56.1959 7.6865 56.1813 7.60139 56.1331C7.51629 56.0849 7.453 56.0068 7.42432 55.9145C7.4112 55.8664 7.40821 55.8162 7.41552 55.7669C7.42283 55.7177 7.4403 55.6704 7.46685 55.6279C7.4934 55.5855 7.52848 55.5488 7.56995 55.5201C7.61143 55.4914 7.65842 55.4714 7.70806 55.4611L24.5968 51.9671C25.0315 52.2075 24.8941 52.6548 24.5752 52.7208Z" fill="#CCCCCC"/>
<path d="M24.9796 54.6042L8.28721 58.0575C8.1915 58.0793 8.09092 58.0647 8.00581 58.0165C7.9207 57.9683 7.85741 57.8902 7.82874 57.7979C7.81562 57.7498 7.81263 57.6996 7.81994 57.6503C7.82725 57.6011 7.84472 57.5538 7.87127 57.5113C7.89782 57.4689 7.9329 57.4322 7.97437 57.4035C8.01584 57.3748 8.06284 57.3548 8.11248 57.3445L25.0012 53.8505C25.4359 54.0909 25.2985 54.5382 24.9796 54.6042Z" fill="#CCCCCC"/>
<path d="M25.3839 56.4866L8.6915 59.94C8.59579 59.9618 8.49521 59.9471 8.41011 59.8989C8.325 59.8507 8.26171 59.7726 8.23303 59.6804C8.21992 59.6323 8.21692 59.5821 8.22424 59.5328C8.23155 59.4835 8.24901 59.4362 8.27557 59.3938C8.30212 59.3514 8.3372 59.3147 8.37867 59.286C8.42014 59.2573 8.46713 59.2372 8.51677 59.227L25.4055 55.733C25.8402 55.9734 25.7028 56.4207 25.3839 56.4866Z" fill="#CCCCCC"/>
<path d="M28.3304 47.8657C28.2925 47.9332 28.2601 48.0036 28.2334 48.0761L21.3998 49.7405L20.211 48.5334L18.1205 50.0563L20.0134 52.3939C20.1664 52.5828 20.3776 52.7178 20.6154 52.7789C20.8532 52.8399 21.1047 52.8235 21.3322 52.7323L28.7473 49.7583C28.9911 49.9344 29.2836 50.0335 29.5861 50.0424C29.8886 50.0513 30.1867 49.9696 30.4408 49.8081C30.6948 49.6467 30.8927 49.4132 31.0083 49.1386C31.1238 48.8641 31.1514 48.5615 31.0874 48.2712C31.0235 47.9809 30.871 47.7165 30.6502 47.5133C30.4295 47.3102 30.1509 47.1777 29.8517 47.1337C29.5524 47.0897 29.2465 47.1362 28.9748 47.2669C28.703 47.3977 28.4783 47.6065 28.3304 47.8657L28.3304 47.8657Z" fill="#A0616A"/>
<path d="M5.00478 62.6771C5.21782 62.6126 5.41384 62.5029 5.57904 62.356C5.74425 62.209 5.8746 62.0282 5.96094 61.8265C6.04727 61.6247 6.08748 61.4068 6.07873 61.1881C6.06999 60.9694 6.0125 60.7553 5.91031 60.5608L10.613 47.7316L7.34715 47.1635L3.75147 59.9528C3.42993 60.143 3.19062 60.4423 3.07889 60.794C2.96716 61.1458 2.99078 61.5256 3.14527 61.8614C3.29975 62.1972 3.57438 62.4657 3.91709 62.616C4.25981 62.7664 4.64682 62.7881 5.00478 62.6771Z" fill="#A0616A"/>
<path d="M10.0158 50.0089L6.79123 48.7942C6.69949 48.7597 6.61641 48.7061 6.54765 48.6372C6.4789 48.5683 6.42609 48.4856 6.39281 48.3949C6.35954 48.3041 6.34658 48.2074 6.35483 48.1113C6.36307 48.0152 6.39233 47.9219 6.4406 47.8379L8.1322 44.8941C8.31506 44.4345 8.67615 44.0647 9.13632 43.8659C9.5965 43.6672 10.1182 43.6556 10.587 43.8337C11.0559 44.0119 11.4336 44.3653 11.6375 44.8164C11.8413 45.2674 11.8546 45.7795 11.6744 46.2401L10.9283 49.5284C10.9069 49.6225 10.8651 49.711 10.8057 49.7879C10.7463 49.8647 10.6707 49.9281 10.5841 49.9737C10.4975 50.0193 10.4019 50.0461 10.3039 50.0521C10.2058 50.0582 10.1075 50.0435 10.0158 50.0089V50.0089Z" fill="#CE614A"/>
<path d="M17.2941 86.7635L19.0347 86.7634L19.8627 80.174L17.2938 80.1741L17.2941 86.7635Z" fill="#A0616A"/>
<path d="M16.8501 86.2058L20.2779 86.2056H20.278C20.5649 86.2056 20.8489 86.2611 21.1139 86.3688C21.379 86.4766 21.6198 86.6345 21.8226 86.8336C22.0255 87.0327 22.1864 87.269 22.2962 87.5292C22.4059 87.7893 22.4625 88.0681 22.4624 88.3497V88.4193L16.8502 88.4195L16.8501 86.2058Z" fill="#2F2E41"/>
<path d="M7.49796 86.7635L9.23855 86.7634L10.0665 80.174L7.49768 80.1741L7.49796 86.7635Z" fill="#A0616A"/>
<path d="M7.05396 86.2058L10.4817 86.2056H10.4819C10.7687 86.2056 11.0528 86.2611 11.3178 86.3688C11.5828 86.4766 11.8237 86.6345 12.0265 86.8336C12.2293 87.0327 12.3902 87.269 12.5 87.5292C12.6098 87.7893 12.6663 88.0681 12.6663 88.3497V88.4193L7.05406 88.4195L7.05396 86.2058Z" fill="#2F2E41"/>
<path d="M9.3226 84.1114H7.11995C7.03349 84.1114 6.94794 84.0941 6.86847 84.0607C6.789 84.0273 6.71726 83.9784 6.6576 83.917C6.59794 83.8556 6.5516 83.783 6.52139 83.7035C6.49117 83.624 6.4777 83.5393 6.4818 83.4545L7.52805 61.3915L7.59397 61.3898L18.2304 61.1176L20.3118 83.1932C20.3198 83.276 20.311 83.3595 20.2858 83.4389C20.2606 83.5182 20.2196 83.5919 20.1652 83.6556C20.1108 83.7193 20.044 83.7717 19.9687 83.8098C19.8934 83.8479 19.8112 83.871 19.7268 83.8776L17.2527 84.0718C17.0973 84.0839 16.9427 84.0399 16.8181 83.9479C16.6934 83.856 16.6073 83.7225 16.5759 83.5726L13.4113 67.8577C13.4027 67.8099 13.3769 67.7668 13.3386 67.7361C13.3003 67.7055 13.2521 67.6893 13.2027 67.6906H13.2019C13.1523 67.6895 13.104 67.7059 13.0658 67.7369C13.0276 67.7679 13.002 67.8113 12.9937 67.8593L9.94945 83.6054C9.92062 83.7479 9.84241 83.8761 9.72813 83.9683C9.61386 84.0606 9.47055 84.1111 9.3226 84.1114Z" fill="#2F2E41"/>
<path d="M13.3575 41.7142C15.2833 41.7142 16.8445 40.1819 16.8445 38.2917C16.8445 36.4015 15.2833 34.8692 13.3575 34.8692C11.4317 34.8692 9.87048 36.4015 9.87048 38.2917C9.87048 40.1819 11.4317 41.7142 13.3575 41.7142Z" fill="#A0616A"/>
<path d="M12.1883 63.9771C10.5263 63.9771 8.81923 63.5483 7.40408 62.2806C7.32878 62.2136 7.27064 62.1301 7.23439 62.0368C7.19814 61.9436 7.1848 61.8434 7.19546 61.7441C7.34693 60.4084 8.08168 53.5114 7.66789 48.9043C7.58714 48.0437 7.71127 47.1765 8.03048 46.3711C8.34968 45.5657 8.85523 44.8442 9.50723 44.2634C10.1478 43.6839 10.9168 43.2585 11.7536 43.0207C12.5904 42.7829 13.472 42.7392 14.3289 42.8931H14.329C14.3724 42.9007 14.4158 42.9087 14.4592 42.9169C17.2509 43.4472 19.1906 45.983 18.9711 48.8155C18.6509 52.9486 18.3638 58.539 18.8146 61.7006C18.8332 61.8299 18.8102 61.9618 18.7488 62.0776C18.6873 62.1935 18.5904 62.2876 18.4717 62.3467C17.446 62.8554 14.8761 63.9771 12.1883 63.9771Z" fill="#CE614A"/>
<path d="M16.7384 50.2552C16.6566 50.2017 16.5874 50.1316 16.5358 50.0496C16.4841 49.9675 16.451 49.8755 16.4389 49.7798L16.0141 46.4369C15.8792 45.9615 15.9419 45.453 16.1884 45.0229C16.435 44.5928 16.8452 44.2762 17.3292 44.1425C17.8131 44.0089 18.3314 44.069 18.7703 44.3097C19.2092 44.5505 19.5329 44.9523 19.6704 45.4269L21.0697 48.515C21.1097 48.6031 21.1298 48.6987 21.1287 48.7951C21.1276 48.8916 21.1054 48.9866 21.0635 49.0739C21.0216 49.1611 20.961 49.2385 20.8859 49.3007C20.8108 49.3629 20.7229 49.4085 20.6282 49.4343L17.3008 50.3432C17.2061 50.3691 17.1068 50.3746 17.0098 50.3594C16.9127 50.3442 16.8201 50.3087 16.7384 50.2552Z" fill="#CE614A"/>
<path d="M12.1402 41.6659C11.8101 41.6719 11.4822 41.6136 11.1752 41.4945C11.0401 41.4434 10.8999 41.4014 10.7651 41.3503C9.5744 40.8988 8.79006 39.6542 8.76197 38.4016C8.73388 37.1491 9.39474 35.9334 10.3761 35.1322C11.3574 34.3311 12.6285 33.9197 13.9012 33.8246C15.2722 33.7222 16.816 34.0634 17.582 35.184C17.786 35.4823 17.9286 35.8442 17.8077 36.2044C17.7716 36.3131 17.7069 36.4105 17.6203 36.487C17.2782 36.7857 16.9371 36.5611 16.5883 36.5413C16.109 36.514 15.6784 36.8948 15.5236 37.341C15.3689 37.7871 15.437 38.2783 15.562 38.7334C15.6572 39.0072 15.7172 39.2916 15.7406 39.58C15.7507 39.7246 15.723 39.8694 15.6601 40.0006C15.5972 40.1317 15.5012 40.2449 15.3813 40.3295C15.0817 40.5072 14.6883 40.4044 14.3886 40.2269C14.0889 40.0495 13.8299 39.8028 13.5061 39.6722C13.1824 39.5417 12.7474 39.5706 12.559 39.8601C12.4991 39.9655 12.4586 40.0803 12.4392 40.1995C12.2703 40.9549 12.3091 40.9104 12.1402 41.6658V41.6659Z" fill="#2F2E41"/>
<path d="M27.5364 88.6076H0.56165C0.523997 88.6076 0.487885 88.593 0.46126 88.5668C0.434635 88.5407 0.419678 88.5053 0.419678 88.4683C0.419678 88.4313 0.434635 88.3959 0.46126 88.3698C0.487885 88.3436 0.523997 88.329 0.56165 88.329H27.5364C27.5741 88.329 27.6102 88.3436 27.6368 88.3698C27.6634 88.3959 27.6784 88.4313 27.6784 88.4683C27.6784 88.5053 27.6634 88.5407 27.6368 88.5668C27.6102 88.593 27.5741 88.6076 27.5364 88.6076Z" fill="#CCCCCC"/>
<path d="M96.5839 59.8507L77.2675 70.4852C76.709 70.7919 76.0495 70.8686 75.4335 70.6985C74.8175 70.5284 74.2954 70.1255 73.9817 69.5781L65.161 54.1434C64.8485 53.5953 64.7704 52.9479 64.9437 52.3434C65.1169 51.7388 65.5275 51.2263 66.0852 50.9185L85.4016 40.2839C85.9601 39.9773 86.6196 39.9006 87.2356 40.0707C87.8516 40.2407 88.3737 40.6437 88.6874 41.1911L97.5081 56.6258C97.8205 57.1739 97.8987 57.8212 97.7254 58.4258C97.5521 59.0304 97.1416 59.5428 96.5839 59.8507Z" fill="white"/>
<path d="M96.5839 59.8507L77.2675 70.4852C76.709 70.7919 76.0495 70.8686 75.4335 70.6985C74.8175 70.5284 74.2954 70.1255 73.9817 69.5781L65.161 54.1434C64.8485 53.5953 64.7704 52.9479 64.9437 52.3434C65.1169 51.7388 65.5275 51.2263 66.0852 50.9185L85.4016 40.2839C85.9601 39.9773 86.6196 39.9006 87.2356 40.0707C87.8516 40.2407 88.3737 40.6437 88.6874 41.1911L97.5081 56.6258C97.8205 57.1739 97.8987 57.8212 97.7254 58.4258C97.5521 59.0304 97.1416 59.5428 96.5839 59.8507ZM66.2241 51.1615C65.732 51.4332 65.3698 51.8853 65.2169 52.4188C65.064 52.9522 65.1329 53.5234 65.4086 54.0071L74.2294 69.4417C74.5061 69.9247 74.9668 70.2803 75.5103 70.4303C76.0538 70.5804 76.6358 70.5127 77.1285 70.2422L96.445 59.6076C96.9371 59.336 97.2993 58.8838 97.4522 58.3504C97.6051 57.8169 97.5361 57.2457 97.2605 56.7621L88.4397 41.3274C88.1629 40.8444 87.7023 40.4889 87.1588 40.3388C86.6152 40.1888 86.0333 40.2564 85.5405 40.527L66.2241 51.1615Z" fill="#3F3D56"/>
<path d="M85.8549 46.1277L76.1062 51.4948C76.0215 51.5437 75.9211 51.5592 75.8252 51.5381C75.7293 51.5171 75.6451 51.4611 75.5896 51.3815C75.5625 51.3395 75.5443 51.2924 75.5363 51.2432C75.5283 51.1941 75.5306 51.1438 75.543 51.0955C75.5554 51.0472 75.5777 51.002 75.6086 50.9624C75.6394 50.9229 75.6781 50.8899 75.7224 50.8656L85.646 45.4022C86.1341 45.5041 86.1391 45.9713 85.8548 46.1278L85.8549 46.1277Z" fill="#CCCCCC"/>
<path d="M86.8141 47.8061L77.0653 53.1732C76.9806 53.2221 76.8802 53.2375 76.7843 53.2165C76.6884 53.1955 76.6042 53.1395 76.5488 53.0599C76.5216 53.0178 76.5034 52.9708 76.4954 52.9216C76.4874 52.8724 76.4897 52.8222 76.5021 52.7739C76.5145 52.7256 76.5368 52.6803 76.5677 52.6408C76.5985 52.6013 76.6372 52.5683 76.6815 52.5439L86.6051 47.0806C87.0932 47.1825 87.0982 47.6496 86.8139 47.8061L86.8141 47.8061Z" fill="#CCCCCC"/>
<path d="M75.504 55.289L72.5288 56.927C72.4316 56.9804 72.3168 56.9938 72.2096 56.9642C72.1024 56.9346 72.0115 56.8644 71.9569 56.7691L69.9875 53.3231C69.9331 53.2277 69.9195 53.115 69.9497 53.0097C69.9798 52.9045 70.0513 52.8153 70.1484 52.7617L73.1236 51.1237C73.2208 51.0704 73.3356 51.0571 73.4428 51.0867C73.55 51.1163 73.6409 51.1864 73.6955 51.2816L75.6649 54.7277C75.7193 54.8231 75.7329 54.9358 75.7028 55.041C75.6726 55.1463 75.6011 55.2355 75.504 55.289L75.504 55.289Z" fill="#CCCCCC"/>
<path d="M88.7496 51.2581L73.8712 59.4493C73.7865 59.4982 73.6861 59.5137 73.5902 59.4927C73.4943 59.4716 73.4101 59.4157 73.3547 59.3361C73.3275 59.294 73.3094 59.2469 73.3013 59.1978C73.2933 59.1486 73.2956 59.0984 73.308 59.0501C73.3204 59.0018 73.3427 58.9565 73.3736 58.917C73.4044 58.8774 73.4431 58.8445 73.4874 58.8201L88.5408 50.5326C89.0288 50.6345 89.0339 51.1016 88.7496 51.2581Z" fill="#CCCCCC"/>
<path d="M89.7091 52.937L74.8307 61.1282C74.746 61.1771 74.6455 61.1925 74.5497 61.1715C74.4538 61.1505 74.3696 61.0945 74.3141 61.0149C74.287 60.9728 74.2688 60.9258 74.2608 60.8766C74.2528 60.8275 74.255 60.7772 74.2675 60.7289C74.2799 60.6806 74.3022 60.6353 74.333 60.5958C74.3639 60.5563 74.4026 60.5233 74.4469 60.499L89.5002 52.2114C89.9883 52.3134 89.9933 52.7805 89.7091 52.937V52.937Z" fill="#CCCCCC"/>
<path d="M90.6679 54.6147L75.7896 62.8059C75.7049 62.8548 75.6044 62.8703 75.5085 62.8493C75.4126 62.8282 75.3285 62.7723 75.273 62.6927C75.2458 62.6506 75.2277 62.6035 75.2197 62.5544C75.2116 62.5052 75.2139 62.4549 75.2263 62.4067C75.2387 62.3584 75.2611 62.3131 75.2919 62.2736C75.3228 62.234 75.3615 62.2011 75.4057 62.1767L90.4591 53.8892C90.9471 53.9911 90.9522 54.4582 90.6679 54.6147Z" fill="#CCCCCC"/>
<path d="M91.6273 56.2935L76.7489 64.4847C76.6642 64.5335 76.5638 64.549 76.4679 64.528C76.372 64.507 76.2878 64.451 76.2324 64.3714C76.2052 64.3293 76.187 64.2823 76.179 64.2331C76.171 64.1839 76.1733 64.1337 76.1857 64.0854C76.1981 64.0371 76.2204 63.9918 76.2513 63.9523C76.2821 63.9127 76.3208 63.8798 76.3651 63.8554L91.4184 55.5679C91.9065 55.6699 91.9115 56.137 91.6273 56.2935H91.6273Z" fill="#CCCCCC"/>
<path d="M92.5861 57.9714L77.7078 66.1626C77.6231 66.2114 77.5226 66.2269 77.4267 66.2059C77.3308 66.1849 77.2467 66.1289 77.1912 66.0493C77.1641 66.0072 77.1459 65.9602 77.1379 65.911C77.1299 65.8618 77.1321 65.8116 77.1445 65.7633C77.157 65.715 77.1793 65.6697 77.2101 65.6302C77.241 65.5906 77.2797 65.5577 77.3239 65.5333L92.3773 57.2458C92.8654 57.3478 92.8704 57.8149 92.5861 57.9714V57.9714Z" fill="#CCCCCC"/>
<path d="M89.9905 64.2591C90.0715 64.0837 90.1123 63.893 90.1101 63.7004C90.1079 63.5078 90.0627 63.3181 89.9777 63.1445C89.8927 62.9709 89.7699 62.8177 89.6181 62.6958C89.4663 62.5738 89.289 62.486 89.0988 62.4385L88.6942 57.774L86.7483 59.2807L87.4309 63.4792C87.3708 63.798 87.432 64.1274 87.6028 64.405C87.7736 64.6825 88.0422 64.8889 88.3577 64.985C88.6732 65.0811 89.0137 65.0603 89.3146 64.9265C89.6155 64.7928 89.856 64.5553 89.9905 64.2591Z" fill="#FFB8B8"/>
<path d="M88.7311 61.95L87.115 62.1391C87.0329 62.1487 86.9496 62.1416 86.8705 62.1182C86.7913 62.0947 86.7179 62.0555 86.6549 62.0029C86.5919 61.9504 86.5406 61.8856 86.5043 61.8127C86.468 61.7398 86.4474 61.6603 86.4438 61.5792L86.2081 56.228L83.1447 48.0141C83.022 47.7593 82.966 47.4784 82.9819 47.1969C82.9978 46.9154 83.0851 46.6422 83.2358 46.4023C83.3109 46.2863 83.3968 46.1775 83.4925 46.0772C83.681 45.8779 83.9158 45.7263 84.1769 45.6353C84.438 45.5443 84.7177 45.5166 84.992 45.5546C85.2747 45.5915 85.5442 45.694 85.7784 45.8537C86.0126 46.0134 86.2045 46.2257 86.3384 46.4728L88.3362 50.5817C89.1718 52.3003 89.5663 54.1934 89.4853 56.096L89.26 61.3895C89.2541 61.528 89.1987 61.66 89.1034 61.7624C89.0081 61.8647 88.8791 61.9308 88.739 61.9489L88.7311 61.95Z" fill="#CE614A"/>
<path d="M94.4704 85.0772L92.972 85.7226L89.7223 80.3574L91.9337 79.4047L94.4704 85.0772Z" fill="#FFB8B8"/>
<path d="M95.4901 86.3381L90.6588 88.4195L90.632 88.3596C90.5236 88.1172 90.4648 87.8562 90.4592 87.5916C90.4535 87.3269 90.5011 87.0638 90.599 86.8172C90.697 86.5705 90.8435 86.3453 91.0301 86.1542C91.2168 85.9632 91.44 85.8101 91.6869 85.7037L91.6871 85.7036L94.6378 84.4324L95.4901 86.3381Z" fill="#2F2E41"/>
<path d="M74.3545 86.8626H72.7181L71.9397 80.6677L74.3548 80.6678L74.3545 86.8626Z" fill="#FFB8B8"/>
<path d="M74.7717 88.4195L69.4955 88.4193V88.3538C69.4955 88.0891 69.5486 87.827 69.6518 87.5825C69.755 87.3379 69.9063 87.1157 70.097 86.9285C70.2877 86.7414 70.5141 86.5929 70.7633 86.4916C71.0124 86.3903 71.2795 86.3382 71.5492 86.3382H71.5493L74.7718 86.3383L74.7717 88.4195Z" fill="#2F2E41"/>
<path d="M90.2859 84.7449L81.1704 64.7789C81.154 64.7415 81.1261 64.71 81.0906 64.6888C81.0551 64.6677 81.0138 64.6578 80.9724 64.6607C80.931 64.6636 80.8915 64.679 80.8594 64.7049C80.8273 64.7308 80.8042 64.7658 80.7933 64.8052L75.2393 84.0898C75.2026 84.2248 75.1181 84.3425 75.0009 84.4217C74.8836 84.5009 74.7414 84.5365 74.5999 84.5219L71.5666 84.2242C71.4103 84.2081 71.2666 84.1328 71.1659 84.0144C71.0652 83.8959 71.0155 83.7437 71.0273 83.5899C71.9922 71.8118 73.5131 60.6957 78.0694 53.4187L78.0937 53.3799L84.9855 54.7063L94.1865 83.4637C94.2319 83.6119 94.2165 83.7716 94.1435 83.9087C94.0705 84.0458 93.9457 84.1494 93.7959 84.1973L91.0213 85.0726C90.8792 85.118 90.7249 85.1095 90.5888 85.0488C90.4527 84.9882 90.3447 84.8798 90.2859 84.7449Z" fill="#2F2E41"/>
<path d="M81.4247 43.1911C83.2352 43.1911 84.7029 41.7505 84.7029 39.9735C84.7029 38.1965 83.2352 36.7559 81.4247 36.7559C79.6142 36.7559 78.1465 38.1965 78.1465 39.9735C78.1465 41.7505 79.6142 43.1911 81.4247 43.1911Z" fill="#FFB8B8"/>
<path d="M77.6459 53.9757L77.604 53.9673L77.5942 53.9266C77.1525 52.0962 77.142 50.0987 77.5629 47.9897C77.7764 46.9118 78.3706 45.9424 79.2408 45.2522C80.111 44.5621 81.2015 44.1954 82.32 44.2169C83.5338 44.2411 84.6922 44.7196 85.5583 45.5545C86.4245 46.3893 86.9328 47.5175 86.9794 48.7082C87.1199 52.3356 85.6095 55.4804 85.5943 55.5118L85.5718 55.5578L77.6459 53.9757Z" fill="#CE614A"/>
<path d="M68.8578 60.097C69.0519 60.0689 69.2373 59.9993 69.4011 59.8931C69.5648 59.787 69.7029 59.647 69.8055 59.4828C69.9081 59.3187 69.9728 59.1344 69.995 58.9431C70.0173 58.7517 69.9965 58.5579 69.9342 58.3753L73.7101 55.5151L71.3657 54.7256L68.1394 57.5627C67.8338 57.6859 67.5848 57.9147 67.4397 58.206C67.2945 58.4972 67.2632 58.8307 67.3517 59.143C67.4403 59.4554 67.6425 59.7251 67.9201 59.9009C68.1976 60.0767 68.5313 60.1465 68.8578 60.097V60.097Z" fill="#FFB8B8"/>
<path d="M70.9202 57.94C70.7973 58.0113 70.6524 58.0371 70.5118 58.0128C70.3711 57.9884 70.244 57.9155 70.1533 57.8072L69.1161 56.5763C69.0634 56.5137 69.0244 56.4412 69.0016 56.3632C68.9788 56.2851 68.9726 56.2033 68.9835 56.1229C68.9944 56.0424 69.0221 55.9651 69.0649 55.8956C69.1077 55.8261 69.1646 55.7661 69.2321 55.7193L73.6876 52.6266L79.0635 45.6503C79.2153 45.4109 79.4256 45.2126 79.6753 45.0732C79.925 44.9339 80.2062 44.858 80.4934 44.8524C80.6334 44.8516 80.7731 44.8635 80.9107 44.8881C81.1835 44.9357 81.4406 45.0474 81.6599 45.2135C81.8793 45.3797 82.0545 45.5954 82.1705 45.8424C82.292 46.0956 82.3501 46.3736 82.3402 46.6532C82.3302 46.9329 82.2524 47.2062 82.1133 47.4505L78.1327 53.7777L78.1239 53.7916L70.9202 57.94Z" fill="#CE614A"/>
<path d="M82.011 39.7738C81.7694 39.3837 81.2362 39.2735 80.7733 39.318C80.3104 39.3625 79.8602 39.5222 79.3951 39.5187C78.1036 39.5089 77.1067 37.9639 77.6497 36.8137C78.095 35.8705 79.2072 35.4563 80.2133 35.1312C82.3227 34.4496 84.7458 33.7947 86.66 34.8999C87.27 35.2625 87.7703 35.7783 88.1092 36.3942C88.4481 37.01 88.6134 37.7035 88.5879 38.403C88.5449 39.2728 88.2055 40.1662 88.4925 40.9902C88.8237 41.9407 89.8735 42.4507 90.8657 42.6974C92.6049 43.1299 94.4387 43.0602 96.1888 43.4481C97.9389 43.836 99.7323 44.8659 100.204 46.565C100.514 47.6809 100.191 48.8823 99.6552 49.9127C99.1088 50.964 98.3496 51.8947 97.424 52.648C96.4984 53.4012 95.4259 53.961 94.2721 54.2932C93.1184 54.6253 91.9077 54.7228 90.7142 54.5797C89.5207 54.4365 88.3695 54.0557 87.3312 53.4607C85.2155 52.2481 83.688 50.1987 82.7773 47.9663C82.2609 46.664 81.8974 45.3083 81.6938 43.9253C81.4899 42.6306 81.6629 41.3223 82.0323 40.0635C82.0498 40.0165 82.0569 39.9663 82.0533 39.9164C82.0496 39.8665 82.0352 39.8179 82.011 39.7738Z" fill="#2F2E41"/>
<path d="M93.8374 88.6076H66.8627C66.825 88.6076 66.7889 88.593 66.7623 88.5668C66.7357 88.5407 66.7207 88.5053 66.7207 88.4683C66.7207 88.4313 66.7357 88.3959 66.7623 88.3698C66.7889 88.3436 66.825 88.329 66.8627 88.329H93.8374C93.8751 88.329 93.9112 88.3436 93.9378 88.3698C93.9644 88.3959 93.9794 88.4313 93.9794 88.4683C93.9794 88.5053 93.9644 88.5407 93.9378 88.5668C93.9112 88.593 93.8751 88.6076 93.8374 88.6076Z" fill="#CCCCCC"/>
</g>
<defs>
<clipPath id="clip0_681_50049">
<rect width="100" height="88.4848" fill="white" transform="translate(0.324829 0.122803)"/>
</clipPath>
</defs>
</svg>
