<svg width="180" height="156" viewBox="0 0 180 156" fill="none" xmlns="http://www.w3.org/2000/svg">
<g id="undraw_developer_activity_re_39tg 1" clip-path="url(#clip0_1529_120220)">
<path id="Vector" d="M162.295 81.1849C162.318 100.488 154.82 119.049 141.375 132.965C140.565 133.81 139.732 134.634 138.878 135.437C137.576 136.669 136.231 137.853 134.842 138.99C121.849 149.642 105.627 155.627 88.7956 155.981C88.2348 155.994 87.6718 156 87.1068 156C73.683 156 56.7992 148.866 41.4771 138.99C40.2094 138.173 38.953 137.337 37.7079 136.482C37.126 136.086 36.5468 135.684 35.9705 135.277C30.0609 131.125 24.4516 126.566 19.1839 121.632C15.7349 118.411 12.5007 114.97 9.5018 111.331C-2.27122 96.8811 -4.86793 83.8613 11.9165 81.1849C13.9037 80.869 15.8324 80.5314 17.7025 80.172C20.4114 79.654 23.0039 79.0946 25.4799 78.4938C28.8152 77.6873 31.9488 76.8127 34.8806 75.87C35.8668 75.5541 36.8304 75.232 37.7714 74.9035C51.684 70.0413 60.9958 63.7009 67.3341 56.8214C68.4092 55.6569 69.4004 54.4784 70.3075 53.2858C71.6955 51.4706 72.9563 49.5625 74.0809 47.5751C75.6331 44.8136 76.9369 41.921 77.977 38.931L78.0342 38.7667C83.0773 24.2918 81.543 10.8656 87.1068 6.3719C110.89 -12.8388 140.499 14.519 154.397 46.7812C155.097 48.4068 155.756 50.0423 156.374 51.6876C156.651 52.4225 156.918 53.1588 157.176 53.8965C157.853 55.8191 158.467 57.7465 159.019 59.6789C159.231 60.4159 159.432 61.1522 159.624 61.8878C159.829 62.6817 160.026 63.4735 160.208 64.2652C161.561 70.0623 162.295 75.7795 162.295 81.1849Z" fill="#F2F2F2"/>
<path id="Vector_2" d="M88.7956 155.981C88.2347 155.994 87.6718 156 87.1067 156C73.683 156 56.7991 148.866 41.477 138.99C40.2094 138.173 38.953 137.337 37.7079 136.482L38.7999 129.87L71.8587 125.503L88.4506 138.126L88.7956 155.981Z" fill="#2F2E41"/>
<path id="Vector_3" d="M90.3871 37.9139H85.6762C85.5303 37.914 85.3904 37.9717 85.2872 38.0744C85.184 38.177 85.126 38.3162 85.126 38.4614V43.1509C85.126 43.2227 85.1403 43.2937 85.168 43.36C85.1957 43.4263 85.2363 43.4865 85.2874 43.5371C85.3385 43.5878 85.3991 43.6279 85.4659 43.6552C85.5326 43.6826 85.604 43.6965 85.6762 43.6963H90.3871C90.5327 43.6964 90.6723 43.639 90.7755 43.5368C90.8786 43.4345 90.9368 43.2958 90.9373 43.1509V38.4614C90.9369 38.3163 90.8788 38.1773 90.7757 38.0747C90.6726 37.9722 90.5329 37.9144 90.3871 37.9139Z" fill="white"/>
<path id="Vector_4" d="M90.3871 45.9052H85.6762C85.5303 45.9053 85.3904 45.963 85.2872 46.0656C85.184 46.1683 85.126 46.3075 85.126 46.4527V51.1422C85.126 51.214 85.1403 51.285 85.168 51.3513C85.1957 51.4176 85.2363 51.4778 85.2874 51.5284C85.3385 51.5791 85.3991 51.6192 85.4659 51.6465C85.5326 51.6738 85.604 51.6878 85.6762 51.6876H90.3871C90.5327 51.6877 90.6723 51.6303 90.7755 51.5281C90.8786 51.4258 90.9368 51.2871 90.9373 51.1422V46.4527C90.9369 46.3076 90.8788 46.1686 90.7757 46.066C90.6726 45.9634 90.5329 45.9056 90.3871 45.9052Z" fill="#E6E6E6"/>
<path id="Vector_5" d="M90.3871 53.8965H85.6762C85.5303 53.8966 85.3904 53.9543 85.2872 54.0569C85.184 54.1596 85.126 54.2988 85.126 54.444V59.1314C85.1258 59.2033 85.14 59.2746 85.1676 59.3411C85.1952 59.4076 85.2357 59.468 85.2868 59.5188C85.3379 59.5697 85.3986 59.61 85.4654 59.6375C85.5323 59.6649 85.6039 59.679 85.6762 59.6789H90.3871C90.533 59.6788 90.6729 59.6211 90.7761 59.5184C90.8793 59.4158 90.9373 59.2766 90.9373 59.1314V54.444C90.9369 54.2989 90.8788 54.1599 90.7757 54.0573C90.6726 53.9547 90.5329 53.8969 90.3871 53.8965Z" fill="#E6E6E6"/>
<path id="Vector_6" d="M90.9289 62.3385C90.9054 62.2124 90.8384 62.0984 90.7395 62.0161C90.6406 61.9338 90.516 61.8885 90.3871 61.8878H85.6762C85.5303 61.8879 85.3904 61.9456 85.2872 62.0483C85.184 62.1509 85.126 62.2902 85.126 62.4353V67.1227C85.1258 67.1947 85.14 67.2659 85.1676 67.3324C85.1952 67.3989 85.2357 67.4593 85.2868 67.5102C85.3379 67.561 85.3986 67.6014 85.4654 67.6288C85.5323 67.6563 85.6039 67.6704 85.6762 67.6702H90.3871C90.533 67.6702 90.6729 67.6125 90.7761 67.5098C90.8793 67.4071 90.9373 67.2679 90.9373 67.1227V62.4353C90.9378 62.4028 90.9349 62.3704 90.9289 62.3385Z" fill="#E6E6E6"/>
<path id="Vector_7" d="M90.6008 69.9213C90.5331 69.8934 90.4604 69.8791 90.3871 69.8792H85.6762C85.6039 69.879 85.5323 69.8931 85.4655 69.9205C85.3986 69.948 85.3379 69.9883 85.2868 70.0392C85.2357 70.0901 85.1952 70.1505 85.1676 70.217C85.14 70.2835 85.1258 70.3547 85.126 70.4266V75.114C85.1257 75.186 85.1397 75.2574 85.1672 75.3239C85.1947 75.3905 85.2352 75.451 85.2864 75.5019C85.3376 75.5528 85.3983 75.5931 85.4652 75.6205C85.5321 75.6479 85.6038 75.6619 85.6762 75.6616H90.3871C90.533 75.6615 90.6729 75.6038 90.7761 75.5011C90.8793 75.3985 90.9373 75.2592 90.9373 75.114V70.4266C90.9371 70.3189 90.9051 70.2136 90.8452 70.1238C90.7854 70.0339 90.7005 69.9635 90.6008 69.9213Z" fill="#E6E6E6"/>
<path id="Vector_8" d="M100.283 37.9139H95.5721C95.4262 37.914 95.2862 37.9717 95.1831 38.0744C95.0799 38.177 95.0219 38.3162 95.0219 38.4614V43.1509C95.0219 43.2227 95.0362 43.2937 95.0639 43.36C95.0916 43.4263 95.1322 43.4865 95.1833 43.5371C95.2344 43.5878 95.295 43.6279 95.3617 43.6552C95.4285 43.6826 95.4999 43.6965 95.5721 43.6963H100.283C100.429 43.6964 100.568 43.639 100.671 43.5368C100.775 43.4345 100.833 43.2958 100.833 43.1509V38.4614C100.833 38.3163 100.775 38.1773 100.672 38.0747C100.568 37.9722 100.429 37.9144 100.283 37.9139Z" fill="#E6E6E6"/>
<path id="Vector_9" d="M100.283 45.9052H95.5721C95.4262 45.9053 95.2862 45.963 95.1831 46.0656C95.0799 46.1683 95.0219 46.3075 95.0219 46.4527V51.1422C95.0219 51.214 95.0362 51.285 95.0639 51.3513C95.0916 51.4176 95.1322 51.4778 95.1833 51.5284C95.2344 51.5791 95.295 51.6192 95.3617 51.6465C95.4285 51.6738 95.4999 51.6878 95.5721 51.6876H100.283C100.429 51.6877 100.568 51.6303 100.671 51.5281C100.775 51.4258 100.833 51.2871 100.833 51.1422V46.4527C100.833 46.3076 100.775 46.1686 100.672 46.066C100.568 45.9634 100.429 45.9056 100.283 45.9052Z" fill="#CE614A"/>
<path id="Vector_10" d="M100.283 53.8965H95.5721C95.4261 53.8966 95.2862 53.9543 95.1831 54.0569C95.0799 54.1596 95.0219 54.2988 95.0219 54.444V59.1314C95.0217 59.2033 95.0358 59.2746 95.0634 59.3411C95.091 59.4076 95.1316 59.468 95.1827 59.5188C95.2338 59.5697 95.2945 59.61 95.3613 59.6375C95.4282 59.6649 95.4998 59.679 95.5721 59.6789H100.283C100.429 59.6788 100.569 59.6211 100.672 59.5184C100.775 59.4158 100.833 59.2766 100.833 59.1314V54.444C100.833 54.2989 100.775 54.1599 100.672 54.0573C100.568 53.9547 100.429 53.8969 100.283 53.8965Z" fill="#CE614A"/>
<path id="Vector_11" d="M100.283 61.8878H95.5721C95.4567 61.8879 95.3443 61.9242 95.2508 61.9915C95.1574 62.0587 95.0876 62.1536 95.0515 62.2626C95.0319 62.3181 95.0219 62.3765 95.0219 62.4353V67.1227C95.0217 67.1947 95.0358 67.2659 95.0634 67.3324C95.091 67.3989 95.1315 67.4593 95.1827 67.5102C95.2338 67.561 95.2945 67.6014 95.3613 67.6288C95.4281 67.6563 95.4998 67.6704 95.5721 67.6702H100.283C100.429 67.6702 100.569 67.6124 100.672 67.5098C100.775 67.4071 100.833 67.2679 100.833 67.1227V62.4353C100.833 62.2903 100.775 62.1512 100.672 62.0487C100.568 61.9461 100.429 61.8882 100.283 61.8878Z" fill="#CE614A"/>
<path id="Vector_12" d="M100.283 69.8792H95.5721C95.4998 69.879 95.4282 69.8931 95.3613 69.9205C95.2945 69.948 95.2338 69.9883 95.1827 70.0392C95.1316 70.0901 95.091 70.1505 95.0634 70.217C95.0358 70.2835 95.0217 70.3547 95.0219 70.4266V75.114C95.0217 75.186 95.0358 75.2572 95.0634 75.3237C95.091 75.3902 95.1316 75.4506 95.1827 75.5015C95.2338 75.5524 95.2945 75.5927 95.3613 75.6202C95.4282 75.6476 95.4998 75.6617 95.5721 75.6616H100.283C100.429 75.6615 100.569 75.6038 100.672 75.5011C100.775 75.3985 100.833 75.2592 100.833 75.114V70.4266C100.833 70.2815 100.775 70.1422 100.672 70.0396C100.569 69.9369 100.429 69.8792 100.283 69.8792Z" fill="#E6E6E6"/>
<path id="Vector_13" d="M110.179 37.9139H105.468C105.322 37.914 105.182 37.9717 105.079 38.0744C104.976 38.177 104.918 38.3162 104.918 38.4614V43.1509C104.918 43.2227 104.932 43.2937 104.96 43.36C104.987 43.4263 105.028 43.4865 105.079 43.5371C105.13 43.5878 105.191 43.6279 105.258 43.6552C105.324 43.6826 105.396 43.6965 105.468 43.6963H110.179C110.324 43.6964 110.464 43.639 110.567 43.5368C110.67 43.4345 110.729 43.2958 110.729 43.1509V38.4614C110.729 38.3163 110.671 38.1773 110.567 38.0747C110.464 37.9722 110.325 37.9144 110.179 37.9139Z" fill="#CE614A"/>
<path id="Vector_14" d="M110.179 45.9052H105.468C105.322 45.9053 105.182 45.963 105.079 46.0656C104.976 46.1683 104.918 46.3075 104.918 46.4527V51.1422C104.918 51.214 104.932 51.285 104.96 51.3513C104.987 51.4176 105.028 51.4778 105.079 51.5284C105.13 51.5791 105.191 51.6192 105.258 51.6465C105.324 51.6738 105.396 51.6878 105.468 51.6876H110.179C110.324 51.6877 110.464 51.6303 110.567 51.5281C110.67 51.4258 110.729 51.2871 110.729 51.1422V46.4527C110.729 46.3076 110.671 46.1686 110.567 46.066C110.464 45.9634 110.325 45.9056 110.179 45.9052Z" fill="#CE614A"/>
<path id="Vector_15" d="M110.179 53.8965H105.468C105.322 53.8966 105.182 53.9543 105.079 54.0569C104.976 54.1596 104.918 54.2988 104.918 54.444V59.1314C104.918 59.2033 104.932 59.2746 104.959 59.3411C104.987 59.4076 105.027 59.468 105.079 59.5188C105.13 59.5697 105.19 59.61 105.257 59.6375C105.324 59.6649 105.396 59.679 105.468 59.6789H110.179C110.325 59.6788 110.465 59.6211 110.568 59.5184C110.671 59.4158 110.729 59.2766 110.729 59.1314V54.444C110.729 54.2989 110.671 54.1599 110.567 54.0573C110.464 53.9547 110.325 53.8969 110.179 53.8965Z" fill="#E6E6E6"/>
<path id="Vector_16" d="M110.179 61.8878H105.468C105.322 61.8879 105.182 61.9456 105.079 62.0483C104.976 62.1509 104.918 62.2902 104.918 62.4353V67.1227C104.918 67.1947 104.932 67.2659 104.959 67.3324C104.987 67.3989 105.027 67.4593 105.079 67.5102C105.13 67.561 105.19 67.6014 105.257 67.6288C105.324 67.6563 105.396 67.6704 105.468 67.6702H110.179C110.325 67.6702 110.465 67.6125 110.568 67.5098C110.671 67.4071 110.729 67.2679 110.729 67.1227V62.4353C110.729 62.2903 110.671 62.1512 110.567 62.0487C110.464 61.9461 110.325 61.8882 110.179 61.8878Z" fill="#CE614A"/>
<path id="Vector_17" d="M110.179 69.8792H105.468C105.396 69.879 105.324 69.8931 105.257 69.9205C105.19 69.948 105.13 69.9883 105.079 70.0392C105.027 70.0901 104.987 70.1505 104.959 70.217C104.932 70.2835 104.918 70.3547 104.918 70.4266V75.114C104.918 75.186 104.932 75.2572 104.959 75.3237C104.987 75.3902 105.027 75.4506 105.079 75.5015C105.13 75.5524 105.19 75.5927 105.257 75.6202C105.324 75.6476 105.396 75.6617 105.468 75.6616H110.179C110.325 75.6615 110.465 75.6038 110.568 75.5011C110.671 75.3985 110.729 75.2592 110.729 75.114V70.4266C110.729 70.2815 110.671 70.1422 110.568 70.0396C110.465 69.9369 110.325 69.8792 110.179 69.8792Z" fill="#CE614A"/>
<path id="Vector_18" d="M120.075 37.9139H115.364C115.218 37.914 115.078 37.9717 114.975 38.0744C114.872 38.177 114.814 38.3162 114.813 38.4614V43.1509C114.814 43.2227 114.828 43.2937 114.856 43.36C114.883 43.4263 114.924 43.4865 114.975 43.5371C115.026 43.5878 115.087 43.6279 115.153 43.6552C115.22 43.6826 115.292 43.6965 115.364 43.6963H120.075C120.22 43.6964 120.36 43.639 120.463 43.5368C120.566 43.4345 120.624 43.2958 120.625 43.1509V38.4614C120.624 38.3163 120.566 38.1773 120.463 38.0747C120.36 37.9722 120.22 37.9144 120.075 37.9139Z" fill="#CE614A"/>
<path id="Vector_19" d="M120.075 45.9052H115.364C115.218 45.9053 115.078 45.963 114.975 46.0656C114.872 46.1683 114.814 46.3075 114.813 46.4527V51.1422C114.814 51.214 114.828 51.285 114.856 51.3513C114.883 51.4176 114.924 51.4778 114.975 51.5284C115.026 51.5791 115.087 51.6192 115.153 51.6465C115.22 51.6738 115.292 51.6878 115.364 51.6876H120.075C120.22 51.6877 120.36 51.6303 120.463 51.5281C120.566 51.4258 120.624 51.2871 120.625 51.1422V46.4527C120.624 46.3076 120.566 46.1686 120.463 46.066C120.36 45.9634 120.22 45.9056 120.075 45.9052Z" fill="white"/>
<path id="Vector_20" d="M120.075 53.8965H115.364C115.218 53.8966 115.078 53.9543 114.975 54.0569C114.872 54.1596 114.814 54.2988 114.813 54.444V59.1314C114.813 59.2033 114.827 59.2746 114.855 59.3411C114.883 59.4076 114.923 59.468 114.974 59.5188C115.025 59.5697 115.086 59.61 115.153 59.6375C115.22 59.6649 115.291 59.679 115.364 59.6789H120.075C120.221 59.6788 120.36 59.6211 120.464 59.5184C120.567 59.4158 120.625 59.2766 120.625 59.1314V54.444C120.624 54.2989 120.566 54.1599 120.463 54.0573C120.36 53.9547 120.22 53.8969 120.075 53.8965Z" fill="white"/>
<path id="Vector_21" d="M120.075 61.8878H115.364C115.218 61.8879 115.078 61.9456 114.975 62.0483C114.872 62.1509 114.814 62.2901 114.813 62.4353V67.1227C114.813 67.1947 114.827 67.2659 114.855 67.3324C114.883 67.3989 114.923 67.4593 114.974 67.5102C115.025 67.5611 115.086 67.6014 115.153 67.6288C115.22 67.6563 115.291 67.6704 115.364 67.6702H120.075C120.221 67.6702 120.36 67.6125 120.464 67.5098C120.567 67.4071 120.625 67.2679 120.625 67.1227V62.4353C120.624 62.2903 120.566 62.1512 120.463 62.0487C120.36 61.9461 120.22 61.8882 120.075 61.8878Z" fill="#E6E6E6"/>
<path id="Vector_22" d="M120.075 69.8792H115.364C115.291 69.879 115.22 69.8931 115.153 69.9205C115.086 69.948 115.025 69.9883 114.974 70.0392C114.923 70.0901 114.883 70.1505 114.855 70.217C114.827 70.2834 114.813 70.3547 114.813 70.4266V75.114C114.813 75.186 114.827 75.2572 114.855 75.3237C114.883 75.3902 114.923 75.4506 114.974 75.5015C115.025 75.5524 115.086 75.5927 115.153 75.6202C115.22 75.6476 115.291 75.6617 115.364 75.6616H120.075C120.221 75.6615 120.36 75.6038 120.464 75.5011C120.567 75.3985 120.625 75.2592 120.625 75.114V70.4266C120.625 70.2815 120.567 70.1422 120.464 70.0396C120.36 69.9369 120.221 69.8792 120.075 69.8792Z" fill="#CE614A"/>
<path id="Vector_23" d="M129.97 37.9139H125.257C125.112 37.9144 124.972 37.9723 124.87 38.075C124.767 38.1776 124.709 38.3166 124.709 38.4614V43.1509C124.709 43.2955 124.767 43.4342 124.87 43.5365C124.973 43.6388 125.112 43.6963 125.257 43.6963H129.97C130.116 43.6964 130.256 43.639 130.359 43.5368C130.462 43.4345 130.52 43.2958 130.521 43.1509V38.4614C130.52 38.3163 130.462 38.1773 130.359 38.0747C130.256 37.9722 130.116 37.9144 129.97 37.9139Z" fill="white"/>
<path id="Vector_24" d="M129.97 45.9052H125.257C125.112 45.9057 124.972 45.9636 124.87 46.0663C124.767 46.1689 124.709 46.3079 124.709 46.4527V51.1422C124.709 51.2868 124.767 51.4256 124.87 51.5278C124.973 51.6301 125.112 51.6876 125.257 51.6876H129.97C130.116 51.6877 130.256 51.6303 130.359 51.528C130.462 51.4258 130.52 51.2871 130.521 51.1422V46.4527C130.52 46.3076 130.462 46.1686 130.359 46.066C130.256 45.9634 130.116 45.9056 129.97 45.9052Z" fill="white"/>
<path id="Vector_25" d="M129.97 53.8965H125.257C125.112 53.897 124.972 53.9549 124.87 54.0575C124.767 54.1602 124.709 54.2991 124.709 54.444V59.1314C124.709 59.2032 124.723 59.2743 124.751 59.3407C124.778 59.407 124.818 59.4674 124.869 59.5182C124.92 59.5691 124.981 59.6094 125.047 59.637C125.114 59.6646 125.185 59.6788 125.257 59.6789H129.97C130.116 59.6788 130.256 59.6211 130.359 59.5184C130.463 59.4158 130.521 59.2766 130.521 59.1314V54.444C130.52 54.2989 130.462 54.1599 130.359 54.0573C130.256 53.9547 130.116 53.8969 129.97 53.8965Z" fill="white"/>
<path id="Vector_26" d="M129.97 61.8878H125.257C125.112 61.8883 124.972 61.9462 124.87 62.0489C124.767 62.1515 124.709 62.2905 124.709 62.4353V67.1227C124.709 67.1945 124.723 67.2656 124.751 67.332C124.778 67.3984 124.818 67.4587 124.869 67.5096C124.92 67.5604 124.981 67.6008 125.047 67.6284C125.114 67.6559 125.185 67.6701 125.257 67.6702H129.97C130.116 67.6702 130.256 67.6125 130.359 67.5098C130.463 67.4071 130.521 67.2679 130.521 67.1227V62.4353C130.52 62.2903 130.462 62.1512 130.359 62.0487C130.256 61.9461 130.116 61.8882 129.97 61.8878Z" fill="#CE614A"/>
<path id="Vector_27" d="M129.97 69.8792H125.257C125.185 69.8792 125.114 69.8935 125.047 69.921C124.981 69.9486 124.92 69.9889 124.869 70.0398C124.818 70.0907 124.778 70.151 124.751 70.2174C124.723 70.2838 124.709 70.3549 124.709 70.4266V75.114C124.709 75.1858 124.723 75.2569 124.751 75.3233C124.778 75.3897 124.818 75.45 124.869 75.5009C124.92 75.5517 124.981 75.5921 125.047 75.6197C125.114 75.6472 125.185 75.6615 125.257 75.6616H129.97C130.116 75.6615 130.256 75.6038 130.359 75.5011C130.463 75.3984 130.521 75.2592 130.521 75.114V70.4266C130.521 70.2815 130.463 70.1422 130.359 70.0396C130.256 69.9369 130.116 69.8792 129.97 69.8792Z" fill="#E6E6E6"/>
<path id="Vector_28" d="M139.866 37.9139H135.153C135.008 37.9144 134.868 37.9723 134.766 38.075C134.663 38.1776 134.605 38.3166 134.605 38.4614V43.1509C134.605 43.2955 134.663 43.4342 134.766 43.5365C134.869 43.6388 135.008 43.6963 135.153 43.6963H139.866C140.012 43.6964 140.152 43.639 140.255 43.5367C140.358 43.4345 140.416 43.2958 140.417 43.1509V38.4614C140.416 38.3163 140.358 38.1773 140.255 38.0748C140.152 37.9722 140.012 37.9144 139.866 37.9139Z" fill="white"/>
<path id="Vector_29" d="M139.866 45.9052H135.153C135.008 45.9057 134.868 45.9636 134.766 46.0663C134.663 46.1689 134.605 46.3079 134.605 46.4527V51.1422C134.605 51.2868 134.663 51.4256 134.766 51.5278C134.869 51.6301 135.008 51.6876 135.153 51.6876H139.866C140.012 51.6876 140.152 51.6303 140.255 51.528C140.358 51.4258 140.416 51.2871 140.417 51.1422V46.4527C140.416 46.3076 140.358 46.1686 140.255 46.066C140.152 45.9635 140.012 45.9056 139.866 45.9052Z" fill="white"/>
<path id="Vector_30" d="M139.866 53.8965H135.153C135.008 53.897 134.868 53.9549 134.766 54.0575C134.663 54.1602 134.605 54.2991 134.605 54.444V59.1314C134.605 59.2032 134.619 59.2743 134.647 59.3407C134.674 59.407 134.714 59.4674 134.765 59.5182C134.816 59.5691 134.877 59.6094 134.943 59.637C135.01 59.6646 135.081 59.6788 135.153 59.6789H139.866C140.012 59.6788 140.152 59.6211 140.255 59.5184C140.359 59.4158 140.417 59.2766 140.417 59.1314V54.444C140.416 54.2989 140.358 54.1599 140.255 54.0573C140.152 53.9547 140.012 53.8969 139.866 53.8965Z" fill="#CE614A"/>
<path id="Vector_31" d="M139.866 61.8878H135.153C135.008 61.8883 134.868 61.9462 134.766 62.0489C134.663 62.1515 134.605 62.2905 134.605 62.4353V67.1227C134.605 67.1945 134.619 67.2656 134.646 67.332C134.674 67.3984 134.714 67.4587 134.765 67.5096C134.816 67.5604 134.877 67.6008 134.943 67.6284C135.01 67.6559 135.081 67.6701 135.153 67.6702H139.866C140.012 67.6702 140.152 67.6124 140.255 67.5098C140.359 67.4071 140.417 67.2679 140.417 67.1227V62.4353C140.416 62.2903 140.358 62.1512 140.255 62.0487C140.152 61.9461 140.012 61.8883 139.866 61.8878Z" fill="#E6E6E6"/>
<path id="Vector_32" d="M139.866 69.8792H135.153C135.081 69.8792 135.01 69.8935 134.943 69.921C134.877 69.9486 134.816 69.9889 134.765 70.0398C134.714 70.0907 134.674 70.151 134.646 70.2174C134.619 70.2838 134.605 70.3549 134.605 70.4266V75.114C134.605 75.1858 134.619 75.2569 134.646 75.3233C134.674 75.3897 134.714 75.45 134.765 75.5009C134.816 75.5517 134.877 75.5921 134.943 75.6197C135.01 75.6472 135.081 75.6615 135.153 75.6616H139.866C140.012 75.6615 140.152 75.6038 140.255 75.5011C140.359 75.3984 140.417 75.2592 140.417 75.114V70.4266C140.417 70.2815 140.359 70.1422 140.255 70.0396C140.152 69.9369 140.012 69.8792 139.866 69.8792Z" fill="white"/>
<path id="Vector_33" d="M149.762 37.9139H145.049C144.904 37.9144 144.764 37.9723 144.661 38.075C144.559 38.1776 144.501 38.3166 144.501 38.4614V43.1509C144.501 43.2955 144.559 43.4342 144.662 43.5365C144.764 43.6388 144.904 43.6963 145.049 43.6963H149.762C149.908 43.6964 150.047 43.639 150.151 43.5367C150.254 43.4345 150.312 43.2958 150.312 43.1509V38.4614C150.312 38.3163 150.254 38.1773 150.151 38.0748C150.048 37.9722 149.908 37.9144 149.762 37.9139Z" fill="#CE614A"/>
<path id="Vector_34" d="M149.762 45.9052H145.049C144.904 45.9057 144.764 45.9636 144.661 46.0663C144.559 46.1689 144.501 46.3079 144.501 46.4527V51.1422C144.501 51.2868 144.559 51.4256 144.662 51.5278C144.764 51.6301 144.904 51.6876 145.049 51.6876H149.762C149.908 51.6876 150.047 51.6303 150.151 51.528C150.254 51.4258 150.312 51.2871 150.312 51.1422V46.4527C150.312 46.3076 150.254 46.1686 150.151 46.066C150.048 45.9635 149.908 45.9056 149.762 45.9052Z" fill="#CE614A"/>
<path id="Vector_35" d="M149.762 53.8965H145.049C144.904 53.897 144.764 53.9549 144.661 54.0575C144.559 54.1602 144.501 54.2991 144.501 54.444V59.1314C144.501 59.2032 144.515 59.2743 144.542 59.3407C144.57 59.407 144.61 59.4674 144.661 59.5182C144.712 59.5691 144.772 59.6094 144.839 59.637C144.906 59.6646 144.977 59.6788 145.049 59.6789H149.762C149.908 59.6788 150.048 59.6211 150.151 59.5184C150.254 59.4158 150.312 59.2766 150.312 59.1314V54.444C150.312 54.2989 150.254 54.1599 150.151 54.0573C150.048 53.9547 149.908 53.8969 149.762 53.8965Z" fill="#E6E6E6"/>
<path id="Vector_36" d="M149.762 61.8878H145.049C144.904 61.8883 144.764 61.9462 144.661 62.0489C144.559 62.1515 144.501 62.2905 144.501 62.4353V67.1227C144.501 67.1945 144.515 67.2656 144.542 67.332C144.57 67.3984 144.61 67.4587 144.661 67.5096C144.712 67.5604 144.772 67.6008 144.839 67.6284C144.906 67.6559 144.977 67.6701 145.049 67.6702H149.762C149.908 67.6702 150.048 67.6124 150.151 67.5098C150.254 67.4071 150.312 67.2679 150.312 67.1227V62.4353C150.312 62.2903 150.254 62.1512 150.151 62.0487C150.048 61.9461 149.908 61.8883 149.762 61.8878Z" fill="white"/>
<path id="Vector_37" d="M149.762 69.8792H145.049C144.977 69.8792 144.906 69.8935 144.839 69.921C144.772 69.9486 144.712 69.9889 144.661 70.0398C144.61 70.0907 144.57 70.151 144.542 70.2174C144.515 70.2838 144.501 70.3549 144.501 70.4266V75.114C144.501 75.1858 144.515 75.2569 144.542 75.3233C144.57 75.3897 144.61 75.45 144.661 75.5009C144.712 75.5517 144.772 75.5921 144.839 75.6197C144.906 75.6472 144.977 75.6615 145.049 75.6616H149.762C149.908 75.6615 150.048 75.6038 150.151 75.5011C150.254 75.3984 150.312 75.2592 150.312 75.114V70.4266C150.312 70.2815 150.254 70.1422 150.151 70.0396C150.048 69.9369 149.908 69.8792 149.762 69.8792Z" fill="#CE614A"/>
<path id="Vector_38" d="M159.658 37.9139H154.945C154.8 37.9144 154.66 37.9723 154.557 38.075C154.455 38.1776 154.397 38.3166 154.397 38.4614V43.1509C154.397 43.2955 154.455 43.4342 154.558 43.5365C154.66 43.6388 154.8 43.6963 154.945 43.6963H159.658C159.804 43.6964 159.943 43.639 160.047 43.5367C160.15 43.4345 160.208 43.2958 160.208 43.1509V38.4614C160.208 38.3163 160.15 38.1773 160.047 38.0748C159.944 37.9722 159.804 37.9144 159.658 37.9139Z" fill="#CE614A"/>
<path id="Vector_39" d="M159.658 45.9052H154.945C154.8 45.9057 154.66 45.9636 154.557 46.0663C154.455 46.1689 154.397 46.3079 154.397 46.4527V51.1422C154.397 51.2868 154.455 51.4256 154.558 51.5278C154.66 51.6301 154.8 51.6876 154.945 51.6876H159.658C159.804 51.6876 159.943 51.6303 160.047 51.528C160.15 51.4258 160.208 51.2871 160.208 51.1422V46.4527C160.208 46.3076 160.15 46.1686 160.047 46.066C159.944 45.9635 159.804 45.9056 159.658 45.9052Z" fill="#CE614A"/>
<path id="Vector_40" d="M159.658 53.8965H154.945C154.8 53.897 154.66 53.9549 154.557 54.0575C154.455 54.1602 154.397 54.2991 154.397 54.444V59.1314C154.397 59.2032 154.411 59.2743 154.438 59.3407C154.466 59.407 154.506 59.4674 154.557 59.5182C154.608 59.5691 154.668 59.6094 154.735 59.637C154.802 59.6646 154.873 59.6788 154.945 59.6789H159.658C159.804 59.6788 159.944 59.6211 160.047 59.5184C160.15 59.4158 160.208 59.2766 160.208 59.1314V54.444C160.208 54.2989 160.15 54.1599 160.047 54.0573C159.944 53.9547 159.804 53.8969 159.658 53.8965Z" fill="#E6E6E6"/>
<path id="Vector_41" d="M159.658 61.8878H154.945C154.8 61.8883 154.66 61.9462 154.557 62.0489C154.455 62.1515 154.397 62.2905 154.397 62.4353V67.1227C154.397 67.1945 154.411 67.2656 154.438 67.332C154.466 67.3984 154.506 67.4587 154.557 67.5096C154.608 67.5604 154.668 67.6008 154.735 67.6284C154.802 67.6559 154.873 67.6701 154.945 67.6702H159.658C159.804 67.6702 159.944 67.6124 160.047 67.5098C160.15 67.4071 160.208 67.2679 160.208 67.1227V62.4353C160.208 62.2903 160.15 62.1512 160.047 62.0487C159.944 61.9461 159.804 61.8883 159.658 61.8878Z" fill="#CE614A"/>
<path id="Vector_42" d="M159.658 69.8792H154.945C154.873 69.8792 154.802 69.8935 154.735 69.921C154.668 69.9486 154.608 69.9889 154.557 70.0398C154.506 70.0907 154.466 70.151 154.438 70.2174C154.411 70.2838 154.397 70.3549 154.397 70.4266V75.114C154.397 75.1858 154.411 75.2569 154.438 75.3233C154.466 75.3897 154.506 75.45 154.557 75.5009C154.608 75.5517 154.668 75.5921 154.735 75.6197C154.802 75.6472 154.873 75.6615 154.945 75.6616H159.658C159.804 75.6615 159.944 75.6038 160.047 75.5011C160.15 75.3984 160.208 75.2592 160.208 75.114V70.4266C160.208 70.2815 160.15 70.1422 160.047 70.0396C159.944 69.9369 159.804 69.8792 159.658 69.8792Z" fill="#CE614A"/>
<path id="Vector_43" d="M169.554 37.9139H164.841C164.695 37.9144 164.556 37.9723 164.453 38.075C164.35 38.1776 164.293 38.3166 164.293 38.4614V43.1509C164.293 43.2955 164.351 43.4342 164.453 43.5365C164.556 43.6388 164.695 43.6963 164.841 43.6963H169.554C169.699 43.6964 169.839 43.639 169.942 43.5367C170.045 43.4345 170.104 43.2958 170.104 43.1509V38.4614C170.104 38.3163 170.046 38.1773 169.942 38.0748C169.839 37.9722 169.7 37.9144 169.554 37.9139Z" fill="#E6E6E6"/>
<path id="Vector_44" d="M169.554 45.9052H164.841C164.695 45.9057 164.556 45.9636 164.453 46.0663C164.35 46.1689 164.293 46.3079 164.293 46.4527V51.1422C164.293 51.2868 164.351 51.4256 164.453 51.5278C164.556 51.6301 164.695 51.6876 164.841 51.6876H169.554C169.699 51.6876 169.839 51.6303 169.942 51.528C170.045 51.4258 170.104 51.2871 170.104 51.1422V46.4527C170.104 46.3076 170.046 46.1686 169.942 46.066C169.839 45.9635 169.7 45.9056 169.554 45.9052Z" fill="#CE614A"/>
<path id="Vector_45" d="M169.554 53.8965H164.841C164.695 53.897 164.556 53.9549 164.453 54.0575C164.35 54.1602 164.293 54.2991 164.293 54.444V59.1314C164.293 59.2032 164.307 59.2743 164.334 59.3407C164.361 59.407 164.402 59.4674 164.453 59.5182C164.504 59.5691 164.564 59.6094 164.631 59.637C164.697 59.6646 164.769 59.6788 164.841 59.6789H169.554C169.7 59.6788 169.84 59.6211 169.943 59.5184C170.046 59.4158 170.104 59.2766 170.104 59.1314V54.444C170.104 54.2989 170.046 54.1599 169.942 54.0573C169.839 53.9547 169.7 53.8969 169.554 53.8965Z" fill="#CE614A"/>
<path id="Vector_46" d="M169.554 61.8878H164.841C164.695 61.8883 164.556 61.9462 164.453 62.0489C164.35 62.1515 164.293 62.2905 164.293 62.4353V67.1227C164.293 67.1945 164.307 67.2656 164.334 67.332C164.361 67.3984 164.402 67.4587 164.453 67.5096C164.504 67.5604 164.564 67.6008 164.631 67.6284C164.697 67.6559 164.769 67.6701 164.841 67.6702H169.554C169.7 67.6702 169.84 67.6124 169.943 67.5098C170.046 67.4071 170.104 67.2679 170.104 67.1227V62.4353C170.104 62.2903 170.046 62.1512 169.942 62.0487C169.839 61.9461 169.7 61.8883 169.554 61.8878Z" fill="#CE614A"/>
<path id="Vector_47" d="M169.554 69.8792H164.841C164.769 69.8792 164.697 69.8935 164.631 69.921C164.564 69.9486 164.504 69.9889 164.453 70.0398C164.402 70.0907 164.361 70.151 164.334 70.2174C164.307 70.2838 164.293 70.3549 164.293 70.4266V75.114C164.293 75.1858 164.307 75.2569 164.334 75.3233C164.361 75.3897 164.402 75.45 164.453 75.5009C164.504 75.5517 164.564 75.5921 164.631 75.6197C164.697 75.6472 164.769 75.6615 164.841 75.6616H169.554C169.7 75.6615 169.84 75.6038 169.943 75.5011C170.046 75.3984 170.104 75.2592 170.104 75.114V70.4266C170.104 70.2815 170.046 70.1422 169.943 70.0396C169.84 69.9369 169.7 69.8792 169.554 69.8792Z" fill="#E6E6E6"/>
<path id="Vector_48" d="M179.45 37.9139H174.737C174.591 37.9144 174.452 37.9723 174.349 38.075C174.246 38.1776 174.189 38.3166 174.189 38.4614V43.1509C174.189 43.2955 174.246 43.4343 174.349 43.5365C174.452 43.6388 174.591 43.6963 174.737 43.6963H179.45C179.595 43.6964 179.735 43.639 179.838 43.5367C179.941 43.4345 180 43.2958 180 43.1509V38.4614C180 38.3163 179.941 38.1773 179.838 38.0748C179.735 37.9722 179.596 37.9144 179.45 37.9139Z" fill="#E6E6E6"/>
<path id="Vector_49" d="M179.45 45.9052H174.737C174.591 45.9057 174.452 45.9636 174.349 46.0663C174.246 46.1689 174.189 46.3079 174.189 46.4527V51.1422C174.189 51.2868 174.246 51.4256 174.349 51.5278C174.452 51.6301 174.591 51.6876 174.737 51.6876H179.45C179.595 51.6876 179.735 51.6303 179.838 51.528C179.941 51.4258 180 51.2871 180 51.1422V46.4527C180 46.3076 179.941 46.1686 179.838 46.066C179.735 45.9635 179.596 45.9056 179.45 45.9052Z" fill="#E6E6E6"/>
<path id="Vector_50" d="M179.45 53.8965H174.737C174.591 53.897 174.452 53.9549 174.349 54.0575C174.246 54.1602 174.189 54.2991 174.189 54.444V59.1314C174.188 59.2032 174.202 59.2743 174.23 59.3407C174.257 59.407 174.298 59.4674 174.349 59.5182C174.399 59.5691 174.46 59.6094 174.527 59.637C174.593 59.6646 174.665 59.6788 174.737 59.6789H179.45C179.596 59.6788 179.736 59.6211 179.839 59.5184C179.942 59.4158 180 59.2766 180 59.1314V54.444C180 54.2989 179.941 54.1599 179.838 54.0573C179.735 53.9547 179.596 53.8969 179.45 53.8965Z" fill="#CE614A"/>
<path id="Vector_51" d="M179.45 61.8878H174.737C174.591 61.8883 174.452 61.9463 174.349 62.0489C174.246 62.1515 174.189 62.2905 174.189 62.4353V67.1227C174.188 67.1945 174.202 67.2656 174.23 67.332C174.257 67.3984 174.298 67.4587 174.349 67.5096C174.399 67.5604 174.46 67.6008 174.527 67.6284C174.593 67.6559 174.665 67.6701 174.737 67.6702H179.45C179.596 67.6702 179.736 67.6124 179.839 67.5098C179.942 67.4071 180 67.2679 180 67.1227V62.4353C180 62.2903 179.941 62.1512 179.838 62.0487C179.735 61.9461 179.596 61.8883 179.45 61.8878Z" fill="#E6E6E6"/>
<path id="Vector_52" d="M179.45 69.8792H174.737C174.665 69.8792 174.593 69.8935 174.527 69.921C174.46 69.9486 174.399 69.9889 174.349 70.0398C174.298 70.0907 174.257 70.151 174.23 70.2174C174.202 70.2838 174.188 70.3549 174.189 70.4266V75.114C174.188 75.1858 174.202 75.2569 174.23 75.3233C174.257 75.3897 174.298 75.45 174.349 75.5009C174.399 75.5517 174.46 75.5921 174.527 75.6197C174.593 75.6472 174.665 75.6615 174.737 75.6616H179.45C179.596 75.6615 179.736 75.6038 179.839 75.5011C179.942 75.3984 180 75.2592 180 75.114V70.4266C180 70.2815 179.942 70.1422 179.839 70.0396C179.736 69.9369 179.596 69.8792 179.45 69.8792Z" fill="#E6E6E6"/>
<path id="Vector_53" d="M71.1276 138.99H70.9968L71.1086 138.975L71.1276 138.99Z" fill="#2F2E41"/>
<path id="ab6171fa-7d69-4734-b81c-8dff60f9761b" d="M59.8522 51.6023C67.8377 51.6023 74.3112 45.1611 74.3112 37.2155C74.3112 29.2698 67.8377 22.8286 59.8522 22.8286C51.8667 22.8286 45.3932 29.2698 45.3932 37.2155C45.3932 45.1611 51.8667 51.6023 59.8522 51.6023Z" fill="#FFB6B6"/>
<path id="bf427902-b9bf-4946-b5d7-5c1c7e04535e" d="M72.5144 26.6673C72.5144 26.6673 76.2961 19.4739 67.9762 18.8199C67.9762 18.8199 60.8834 12.4179 53.6539 17.6495C53.6539 17.6495 49.7106 17.6495 47.5542 22.0896C47.5542 22.0896 44.4528 20.9193 43.7712 24.0515C43.7712 24.0515 41.5018 30.591 43.7712 36.4765C46.0406 42.3621 46.7944 43.016 46.7944 43.016C46.7944 43.016 43.0653 30.6766 52.1423 30.0227C61.2193 29.3687 71.3767 23.7245 72.1332 30.9179C72.8897 38.1113 74.028 39.8837 74.028 39.8837C74.028 39.8837 81.2128 29.6101 72.5144 26.6673Z" fill="#2F2E41"/>
<path id="Vector_54" d="M97.2545 72.6713L97.208 72.9156L96.6852 75.6615L93.0727 94.6553L92.859 95.7735L92.4103 98.1383L91.7966 101.364L90.4358 108.513L90.0464 110.562L89.9004 111.331L89.8496 111.6L89.4454 113.721L89.3226 114.361L88.3364 121.632L87.4751 127.968L90.3575 130.836L88.639 132.546L87.5111 138.975L87.5132 138.99H41.4772C39.6148 137.789 37.7793 136.552 35.9705 135.277L36.3493 132.456C36.3493 132.456 37.653 127.417 37.1048 126.814C36.5589 126.212 35.361 125.136 35.361 125.136L36.87 121.632L37.0795 121.146L36.7282 113.896L36.7197 113.721L36.6033 111.331L36.5885 111.023L36.5652 110.562L36.1187 101.364L36.1102 101.213L35.9748 98.4246L35.8478 95.7735L35.7928 94.6553L35.2489 83.4675L34.8806 75.87L34.559 69.2558L35.852 68.8199L49.6821 64.143L55.4109 56.7329L67.3342 56.8214L73.171 56.8656L82.9102 65.8529L85.126 66.9058L85.143 66.9142L86.7323 67.6702L90.7617 69.5843L95.0219 71.61L97.208 72.6482L97.2545 72.6713Z" fill="#CACACA"/>
<path id="Vector_55" d="M56.9517 117.406C56.0779 117.743 55.1406 117.885 54.2057 117.822C53.2708 117.76 52.3611 117.494 51.5406 117.044C50.7201 116.593 50.0088 115.969 49.4569 115.216C48.9049 114.463 48.5257 113.598 48.3459 112.683L25.7948 109.499L33.6342 100.676L53.8473 105.052C55.4122 104.853 56.9959 105.233 58.2985 106.118C59.601 107.004 60.5318 108.334 60.9144 109.857C61.2971 111.38 61.105 112.989 60.3747 114.381C59.6443 115.772 58.4264 116.849 56.9517 117.406Z" fill="#FFB6B6"/>
<path id="Vector_56" d="M46.8969 101.364C46.4792 100.837 45.8878 100.474 45.2272 100.339L35.9747 98.4247L35.0245 98.2288C34.4722 98.1142 33.9506 97.8848 33.4936 97.5556C33.0366 97.2265 32.6547 96.8051 32.3727 96.3189C32.0802 95.8086 31.9033 95.2408 31.8542 94.6554C31.8101 94.1231 31.8742 93.5874 32.0426 93.0803L35.2488 83.4676L37.3291 77.2303C37.5812 76.4781 37.73 75.6954 37.7714 74.9035C37.8873 72.712 37.2059 70.5523 35.8519 68.82C34.6616 67.2974 33.0105 66.1961 31.1428 65.6788C29.2751 65.1616 27.2896 65.2559 25.4799 65.9477C25.427 65.9667 25.3719 65.9877 25.319 66.0088C24.0212 66.5244 22.8616 67.3334 21.932 68.3716C21.0024 69.4099 20.3282 70.6491 19.9627 71.9912L17.7025 80.1721L13.0402 97.037C12.5735 98.7267 12.4792 100.497 12.7638 102.226C13.0484 103.955 13.7052 105.603 14.6891 107.057C15.6731 108.51 16.961 109.735 18.4647 110.647C19.9685 111.559 21.6525 112.137 23.4017 112.342L36.7281 113.896L42.895 114.616C43.6081 114.701 44.3273 114.516 44.9093 114.097C45.4914 113.678 45.8935 113.057 46.0356 112.356C46.0456 112.318 46.0533 112.279 46.0589 112.24L46.207 111.331L47.462 103.67L47.4747 103.592C47.5401 103.201 47.5224 102.801 47.4229 102.417C47.3234 102.034 47.1442 101.675 46.8969 101.364Z" fill="#CACACA"/>
<path id="Vector_57" d="M71.3159 117.652C72.2286 117.863 73.1767 117.872 74.0934 117.679C75.0101 117.485 75.873 117.094 76.6215 116.534C77.3699 115.973 77.9857 115.255 78.4253 114.432C78.865 113.609 79.1179 112.699 79.1662 111.768L101.041 105.452L92.0292 97.817L72.6383 104.985C71.0609 105.008 69.5467 105.606 68.3827 106.666C67.2187 107.725 66.4857 109.173 66.3227 110.734C66.1597 112.295 66.578 113.862 67.4982 115.137C68.4185 116.412 69.7768 117.307 71.3159 117.652Z" fill="#FFB6B6"/>
<path id="Vector_58" d="M111.902 91.3241L101.498 67.4997C100.647 65.5437 99.127 63.9509 97.208 63.0039C96.6148 62.7133 95.9918 62.4874 95.3499 62.33C95.2504 62.3048 95.1509 62.2816 95.0515 62.2626C93.6902 61.9671 92.2782 61.993 90.9289 62.3385C89.6954 62.6537 88.5426 63.2242 87.5457 64.0127C86.5487 64.8011 85.73 65.7898 85.1429 66.9142C85.1365 66.9236 85.1308 66.9335 85.126 66.9437C84.4702 68.206 84.1214 69.6039 84.1078 71.0249C84.0942 72.4458 84.4161 73.85 85.0476 75.1246L85.1768 75.3815L92.5288 90.0733C92.7799 90.5756 92.9213 91.1252 92.9439 91.6858C92.9665 92.2464 92.8697 92.8054 92.6598 93.3262C92.45 93.847 92.1319 94.3177 91.7263 94.7076C91.3208 95.0974 90.837 95.3975 90.3067 95.5882L89.7903 95.7735L80.5039 99.1111C79.8071 99.3585 79.234 99.8653 78.9052 100.525C78.5763 101.184 78.5175 101.945 78.7411 102.647L78.7643 102.72L81.3674 111.009C81.3801 111.046 81.3928 111.084 81.4076 111.122C81.4305 111.194 81.4588 111.263 81.4922 111.331C81.7689 111.948 82.2579 112.447 82.8712 112.738C83.4846 113.028 84.182 113.092 84.8381 112.916L89.8495 111.6L90.8717 111.331L103.813 107.93C105.516 107.482 107.101 106.674 108.461 105.56C109.82 104.446 110.922 103.052 111.69 101.475C112.458 99.8984 112.875 98.1748 112.911 96.4227C112.948 94.6706 112.603 92.9314 111.902 91.3241Z" fill="#CACACA"/>
<path id="Vector_59" d="M9.50183 111.331C12.5007 114.97 15.735 118.411 19.1839 121.632H114.835C115.756 121.634 116.64 121.999 117.291 122.647C117.942 123.296 118.309 124.175 118.31 125.092L118.447 149.209C124.332 146.519 129.842 143.084 134.842 138.99C136.231 137.855 137.576 136.671 138.878 135.437C139.731 134.633 140.563 133.809 141.375 132.965C147.463 126.655 152.392 119.333 155.94 111.331H9.50183Z" fill="#3F3D56"/>
<path id="Vector_60" d="M141.375 132.965C140.565 133.81 139.732 134.634 138.878 135.437H118.517V132.965H141.375Z" fill="white"/>
<path id="Vector_61" d="M97.064 53.8965C96.9634 53.7118 96.8145 53.5576 96.6331 53.4501C96.4517 53.3426 96.2445 53.2859 96.0333 53.2859H26.6523C26.3412 53.2867 26.0432 53.4102 25.8234 53.6292C25.6037 53.8483 25.4801 54.1451 25.4799 54.4546V95.7736H97.2079V54.4546C97.209 54.2593 97.1594 54.0671 97.064 53.8965Z" fill="#3F3D56"/>
<path id="Vector_62" d="M25.4171 94.6549V99.7537C25.4171 99.9651 25.459 100.174 25.5403 100.37C25.6215 100.565 25.7407 100.742 25.8909 100.892C26.0411 101.041 26.2195 101.16 26.4157 101.241C26.612 101.322 26.8223 101.363 27.0348 101.363H53.5091V111.426H53.1574C53.1298 111.426 53.1025 111.431 53.077 111.442C53.0515 111.452 53.0283 111.468 53.0088 111.487C52.9893 111.507 52.9738 111.53 52.9632 111.555C52.9527 111.58 52.9472 111.608 52.9472 111.635V112.335C52.9472 112.362 52.9527 112.39 52.9632 112.415C52.9738 112.44 52.9893 112.463 53.0088 112.483C53.0283 112.502 53.0515 112.518 53.077 112.528C53.1025 112.539 53.1298 112.544 53.1574 112.544H69.5923C69.6199 112.544 69.6472 112.539 69.6727 112.528C69.6982 112.518 69.7214 112.502 69.7409 112.483C69.7604 112.463 69.7759 112.44 69.7865 112.415C69.797 112.39 69.8024 112.362 69.8024 112.335V111.635C69.8024 111.608 69.797 111.58 69.7865 111.555C69.7759 111.53 69.7604 111.507 69.7409 111.487C69.7214 111.468 69.6982 111.452 69.6727 111.442C69.6472 111.431 69.6199 111.426 69.5923 111.426H69.2406V101.363H95.7149C95.9273 101.363 96.1377 101.322 96.334 101.241C96.5302 101.16 96.7086 101.041 96.8588 100.892C97.009 100.742 97.1281 100.565 97.2094 100.37C97.2907 100.174 97.3326 99.9651 97.3326 99.7537V94.6549H25.4171Z" fill="#3F3D56"/>
<path id="Vector_63" d="M60.5058 80.0206C64.1649 80.0206 67.1312 77.0691 67.1312 73.4282C67.1312 69.7874 64.1649 66.8359 60.5058 66.8359C56.8467 66.8359 53.8804 69.7874 53.8804 73.4282C53.8804 77.0691 56.8467 80.0206 60.5058 80.0206Z" fill="#CE614A"/>
<path id="Vector_64" d="M77.3865 36.4293H76.3284C76.3284 28.4696 68.4113 23.2537 60.4243 23.2494C59.2626 23.2461 58.1035 23.3582 56.9642 23.5843C55.6817 23.8391 54.3505 24.1444 53.0426 24.5424C47.8852 26.1154 43.1023 29.1561 43.1023 36.4293C43.1012 37.8418 43.2819 39.2487 43.6399 40.6155L42.6156 40.8809C42.2357 39.4272 42.0437 37.9313 42.0442 36.4293C42.0442 30.0742 44.6663 25.709 49.1952 23.1063C51.576 21.7375 54.4817 20.8552 57.8107 20.4256C59.196 20.2423 60.5965 20.1999 61.9904 20.2993C71.1752 20.9563 77.3865 27.9642 77.3865 36.4293Z" fill="#CE614A"/>
<path id="Vector_65" d="M79.1495 37.0126L78.7326 33.9467C78.6298 33.1724 78.255 32.4593 77.6745 31.9336C77.3018 31.5908 76.8557 31.3369 76.3699 31.191C75.8841 31.0451 75.3714 31.011 74.8704 31.0913L74.208 31.1818C74.0267 31.2055 73.852 31.2649 73.694 31.3563C73.5359 31.4478 73.3977 31.5695 73.2874 31.7146C73.1761 31.8591 73.0946 32.0241 73.0478 32.2001C73.0009 32.3762 72.9896 32.5597 73.0144 32.7401L73.9773 39.8027C74.017 40.0906 74.1466 40.3588 74.3479 40.5693C74.5492 40.7798 74.8119 40.9219 75.0989 40.9756C75.1839 40.9926 75.2704 41.0011 75.3571 41.0009C75.4194 41.0009 75.4816 40.9967 75.5434 40.9883L76.2841 40.8893C76.7357 40.8297 77.1702 40.6788 77.5611 40.446C77.952 40.2131 78.2909 39.9032 78.557 39.5353C78.6141 39.4553 78.6691 39.3732 78.7199 39.2889C79.1166 38.5999 79.268 37.7979 79.1495 37.0126Z" fill="#CE614A"/>
<path id="Vector_66" d="M73.7805 31.3103C73.5862 31.4042 73.4172 31.5428 73.2874 31.7146C73.1761 31.8591 73.0946 32.0242 73.0478 32.2002C73.0009 32.3762 72.9896 32.5597 73.0144 32.7401L73.9773 39.8028C74.017 40.0906 74.1466 40.3588 74.3479 40.5693C74.5492 40.7798 74.8119 40.922 75.0989 40.9757L73.7805 31.3103Z" fill="white"/>
<path id="Vector_67" d="M79.1495 37.0127L78.7326 33.9467C78.6298 33.1724 78.2549 32.4593 77.6744 31.9336L78.6331 38.9605C78.6475 39.0733 78.6767 39.1837 78.7199 39.289C79.1166 38.6 79.2679 37.7979 79.1495 37.0127Z" fill="#3F3D56"/>
<path id="Vector_68" d="M75.8544 39.2217C76.144 39.1826 76.2896 38.497 76.1796 37.6903C76.0696 36.8836 75.7457 36.2613 75.4562 36.3004C75.1666 36.3395 75.021 37.0251 75.131 37.8318C75.241 38.6385 75.5649 39.2608 75.8544 39.2217Z" fill="#3F3D56"/>
<path id="Vector_69" d="M75.2196 35.4313C75.5091 35.3922 75.6547 34.7066 75.5447 33.8999C75.4347 33.0932 75.1108 32.471 74.8213 32.51C74.5317 32.5491 74.3862 33.2348 74.4961 34.0415C74.6061 34.8481 74.93 35.4704 75.2196 35.4313Z" fill="#3F3D56"/>
<path id="Vector_70" d="M79.2406 36.9055C79.5301 36.8664 79.6757 36.1807 79.5657 35.374C79.4557 34.5673 79.1318 33.9451 78.8423 33.9842C78.5527 34.0232 78.4072 34.7089 78.5171 35.5156C78.6271 36.3223 78.951 36.9445 79.2406 36.9055Z" fill="#3F3D56"/>
<path id="Vector_71" d="M60.4243 23.2494C59.2626 23.2461 58.1034 23.3582 56.9642 23.5843C55.6817 23.8391 54.3505 24.1444 53.0426 24.5424C51.0004 24.4434 49.4978 23.917 49.1952 23.1063C51.576 21.7375 54.4817 20.8552 57.8107 20.4256C59.196 20.2423 60.5965 20.1999 61.9904 20.2993C62.1379 20.3854 62.2655 20.5015 62.3647 20.6402C62.464 20.7788 62.5325 20.9368 62.566 21.1037C62.6655 21.8365 61.8253 22.6156 60.4243 23.2494Z" fill="#3F3D56"/>
<path id="Vector_72" d="M46.9139 43.7363L45.2843 36.9958C45.2262 36.7526 45.0972 36.5319 44.9135 36.3614C44.7297 36.191 44.4995 36.0783 44.2516 36.0377C44.1816 36.0268 44.1108 36.0212 44.04 36.0208C43.9401 36.0212 43.8407 36.0332 43.7437 36.0566L43.113 36.2082C42.301 36.4036 41.6001 36.9116 41.1641 37.6206C40.728 38.3296 40.5925 39.1818 40.7872 39.9901L41.5173 43.014C41.684 43.7259 42.0811 44.3636 42.6474 44.8292C42.7392 44.9029 42.8353 44.9711 42.9352 45.0334C43.29 45.2547 43.6857 45.4029 44.099 45.4695C44.5122 45.536 44.9347 45.5195 45.3415 45.4209L45.97 45.2693C46.1362 45.2307 46.2926 45.1583 46.4293 45.0566C46.6325 44.9091 46.7871 44.7049 46.8734 44.4698C46.9597 44.2347 46.9738 43.9794 46.9139 43.7363Z" fill="#CE614A"/>
<path id="Vector_73" d="M43.4976 42.4821C43.7817 42.4141 43.8568 41.7173 43.6654 40.9259C43.474 40.1344 43.0885 39.5479 42.8044 39.6159C42.5203 39.6839 42.4452 40.3807 42.6366 41.1722C42.8281 41.9637 43.2135 42.5502 43.4976 42.4821Z" fill="#3F3D56"/>
<path id="Vector_74" d="M41.3814 43.1139C41.6655 43.0459 41.7406 42.3491 41.5492 41.5576C41.3578 40.7661 40.9723 40.1797 40.6882 40.2477C40.4041 40.3157 40.329 41.0125 40.5204 41.804C40.7118 42.5954 41.0973 43.1819 41.3814 43.1139Z" fill="#3F3D56"/>
<path id="Vector_75" d="M47.0175 43.711L45.388 36.9705C45.3245 36.7074 45.1844 36.4688 44.9853 36.2845C44.7861 36.1002 44.5368 35.9785 44.2684 35.9345L46.4927 45.1408C46.7123 44.9808 46.8794 44.7595 46.9728 44.5051C47.0662 44.2506 47.0818 43.9743 47.0175 43.711Z" fill="white"/>
<path id="Vector_76" d="M41.1554 38.6551C41.1104 38.4677 41.026 38.2919 40.9078 38.1392C40.6787 38.7295 40.6366 39.3754 40.7872 39.9902L41.5173 43.014C41.684 43.7259 42.0811 44.3636 42.6474 44.8292L41.1554 38.6551Z" fill="#3F3D56"/>
</g>
<defs>
<clipPath id="clip0_1529_120220">
<rect width="180" height="156" fill="white"/>
</clipPath>
</defs>
</svg>
