<svg width="76" height="66" viewBox="0 0 76 66" fill="none" xmlns="http://www.w3.org/2000/svg">
  <rect width="33" height="12" fill="white"/>
  <path d="M10.6562 10.5498C10.6602 10.5498 10.6642 10.5439 10.6642 10.5439C10.696 10.5203 10.7279 10.4909 10.7558 10.4556C10.7518 10.4556 10.7478 10.4556 10.7438 10.4498C10.7159 10.4792 10.6841 10.5145 10.6562 10.5498Z" fill="#000091"/>
  <path d="M15.0694 9.06287L14.9997 9.12287C15.0396 9.11287 15.0694 9.10287 15.0694 9.06287Z" fill="#000091"/>
  <path fill-rule="evenodd" clip-rule="evenodd" d="M13.6426 10.5817C13.7704 10.4532 13.8983 10.3168 14.0261 10.1765H14.0222C14.2624 9.90382 14.4948 9.64278 14.7737 9.40512C14.8589 9.3272 14.9402 9.26097 15.0177 9.20642C15.0291 9.19498 15.0349 9.17793 15.0406 9.16122C15.0465 9.1438 15.0523 9.12676 15.0642 9.11681C15.009 9.13788 14.965 9.17119 14.9207 9.20471C14.8749 9.23936 14.8289 9.27424 14.7698 9.29603C14.7466 9.29603 14.7233 9.27266 14.7466 9.24928C14.8279 9.19084 14.9092 9.1285 14.9867 9.06616H14.9712C14.948 9.06616 14.948 9.04279 14.948 9.01941C14.6596 8.97361 14.4381 9.17082 14.2399 9.34735L14.2275 9.35837C14.1966 9.37389 14.1675 9.35849 14.1446 9.3464C14.133 9.34027 14.123 9.33499 14.1152 9.33499C13.9398 9.39381 13.7885 9.50223 13.6362 9.61137C13.4959 9.7119 13.3548 9.81303 13.1933 9.87655V9.82979C13.1384 9.84871 13.0842 9.87338 13.0298 9.8981C12.9498 9.93447 12.8696 9.97098 12.7865 9.98953C12.6349 10.0247 12.4943 10.0202 12.358 10.0158C12.3133 10.0143 12.2689 10.0129 12.2249 10.0129C11.9768 10.0375 11.7319 10.0906 11.4872 10.1437L11.4076 10.161C11.4037 10.1629 11.3998 10.1639 11.3959 10.1649C11.3921 10.1658 11.3882 10.1668 11.3843 10.1688C11.2371 10.2077 11.1016 10.2623 10.966 10.3402L10.9505 10.348C10.9452 10.3551 10.9398 10.3614 10.9349 10.3673C10.929 10.3743 10.9237 10.3806 10.9195 10.3869C10.873 10.4415 10.8304 10.4882 10.7646 10.5233C10.6673 10.5722 10.5832 10.6476 10.5005 10.7219C10.4647 10.754 10.429 10.7861 10.3927 10.8155C10.385 10.8233 10.3695 10.8272 10.3578 10.8272C10.2378 10.9441 10.1177 11.061 9.99373 11.1739C9.98598 11.1817 9.95112 11.1856 9.924 11.1817C9.924 11.1817 9.92788 11.1817 9.92788 11.1778L9.9395 11.1545L9.9976 11.061C10.0092 11.0434 10.0199 11.0259 10.0305 11.0084C10.0412 10.9908 10.0518 10.9733 10.0634 10.9558C10.0944 10.909 10.1255 10.8622 10.1603 10.8194C10.168 10.8077 10.168 10.796 10.1603 10.7882C10.1525 10.7804 10.1409 10.7765 10.1293 10.7765C10.2416 10.6675 10.3733 10.5739 10.5089 10.4921V10.4882C10.4934 10.4921 10.4702 10.4804 10.4818 10.4649C10.4932 10.4506 10.5024 10.4342 10.5112 10.4188L10.5205 10.4025C10.5225 10.3986 10.5234 10.3957 10.5244 10.3928C10.5254 10.3899 10.5263 10.3869 10.5283 10.383C10.5263 10.3791 10.5234 10.3762 10.5205 10.3733C10.5176 10.3704 10.5147 10.3675 10.5128 10.3636L10.4893 10.3791C10.4612 10.3974 10.4324 10.4163 10.4082 10.4376C10.3911 10.4523 10.3751 10.4725 10.3588 10.4932C10.3232 10.5382 10.2857 10.5856 10.23 10.5856C10.2261 10.5856 10.2068 10.5856 10.1952 10.5817C10.1835 10.5817 10.1758 10.5778 10.1719 10.5739C10.1719 10.572 10.1719 10.571 10.1724 10.5705C10.1729 10.57 10.1738 10.57 10.1758 10.57C10.1758 10.57 10.1797 10.5662 10.1797 10.5623C10.1797 10.5623 10.1797 10.5584 10.1835 10.5584C10.1855 10.5545 10.1874 10.5515 10.1893 10.5486C10.1913 10.5457 10.1932 10.5428 10.1952 10.5389C10.1971 10.535 10.199 10.5321 10.201 10.5291C10.2029 10.5262 10.2048 10.5233 10.2068 10.5194C10.2087 10.5175 10.2097 10.5145 10.2106 10.5116C10.2116 10.5087 10.2126 10.5058 10.2145 10.5038L10.2189 10.4958C10.2227 10.4889 10.2273 10.4808 10.23 10.4726C10.2319 10.4688 10.2339 10.4658 10.2358 10.4629C10.2378 10.46 10.2397 10.4571 10.2416 10.4532C10.2474 10.4454 10.2523 10.4366 10.2571 10.4278C10.262 10.4191 10.2668 10.4103 10.2726 10.4025C10.2765 10.3947 10.2804 10.3869 10.2881 10.3791C10.292 10.3713 10.2959 10.3645 10.2997 10.3577C10.3036 10.3509 10.3075 10.3441 10.3114 10.3363C10.323 10.3168 10.3114 10.3012 10.2959 10.2973C10.3385 10.2428 10.3888 10.196 10.4508 10.161H10.4431C10.4965 10.1341 10.5515 10.1026 10.6062 10.0713C10.6384 10.0528 10.671 10.0341 10.7026 10.0168C10.7142 10.0051 10.7258 9.99343 10.7413 9.98564C10.6135 10.0285 10.4973 10.0869 10.385 10.1649C10.385 10.1649 10.354 10.1765 10.3462 10.1843C10.3462 10.1843 10.323 10.1921 10.292 10.1649C10.2881 10.161 10.2881 10.1571 10.2881 10.1493C10.3016 10.1222 10.3293 10.1043 10.3594 10.0849C10.3812 10.0708 10.4041 10.056 10.4237 10.0363C10.4469 10.0363 10.4663 10.0363 10.4663 10.0597C10.9124 9.70986 11.4625 9.62894 12.0144 9.54773C12.3539 9.49779 12.6941 9.44775 13.0112 9.33499C13.0441 9.31162 13.078 9.28921 13.1119 9.26681C13.1458 9.24441 13.1797 9.22201 13.2126 9.19863C13.2691 9.17512 13.3198 9.13485 13.3734 9.0922C13.4263 9.05005 13.4822 9.00558 13.5496 8.97266C13.7278 8.8363 13.8634 8.68045 13.9331 8.45058C13.9331 8.42721 13.9099 8.40383 13.9099 8.40383C13.6155 8.71941 13.2785 8.96876 12.9182 9.15188C12.5747 9.33312 12.2067 9.35998 11.8423 9.38657C11.7054 9.39656 11.569 9.40651 11.4347 9.4246C11.4579 9.37785 11.5044 9.37785 11.547 9.37785C11.547 9.32253 11.5735 9.29873 11.6075 9.26819C11.6166 9.26002 11.6263 9.25135 11.6361 9.24149H11.702C11.7136 9.24149 11.7194 9.2298 11.7252 9.21811C11.731 9.20642 11.7368 9.19473 11.7484 9.19473C11.7949 9.19473 11.8608 9.17136 11.8375 9.17136C11.802 9.12569 11.7504 9.14377 11.6934 9.16372C11.6386 9.18291 11.5789 9.20384 11.5238 9.17136C11.5443 9.14888 11.5504 9.12191 11.556 9.09736C11.5621 9.07083 11.5675 9.04714 11.5896 9.035H11.6787C11.6787 8.98824 11.7252 8.94539 11.7252 8.94539C11.9272 8.82393 12.1223 8.71789 12.3137 8.61381C12.4416 8.5443 12.568 8.47559 12.6936 8.40383C12.6682 8.40383 12.6456 8.41428 12.6238 8.42442C12.589 8.44055 12.5558 8.45592 12.5154 8.42721C12.5386 8.42721 12.5386 8.41065 12.5386 8.39409C12.5386 8.37753 12.5386 8.36097 12.5619 8.36097C12.7072 8.32215 12.8365 8.25923 12.9686 8.19497C13.0619 8.1496 13.1565 8.10357 13.2591 8.06487C13.2287 8.06487 13.2005 8.07307 13.173 8.08105C13.1201 8.09643 13.0699 8.11103 13.0112 8.06487C13.0266 8.05713 13.039 8.04725 13.0513 8.03751C13.076 8.01781 13.1002 7.99864 13.1468 7.99864V7.93241C13.1468 7.90903 13.17 7.90903 13.1933 7.90903C13.17 7.90903 13.1468 7.88565 13.1468 7.88565C13.1591 7.8609 13.1833 7.85581 13.2103 7.85013C13.2343 7.84509 13.2605 7.83959 13.2824 7.81942C13.2591 7.81942 13.2165 7.81942 13.2165 7.79604C13.2824 7.70643 13.3947 7.68306 13.507 7.65968C13.4954 7.6363 13.4731 7.6363 13.4538 7.6363C13.4344 7.6363 13.4179 7.6363 13.4179 7.61293C13.4179 7.58955 13.4412 7.58955 13.4644 7.58955H13.4179C13.3815 7.57121 13.3879 7.53847 13.3924 7.51581C13.3936 7.50959 13.3947 7.50414 13.3947 7.49994C13.4857 7.39273 13.5156 7.2662 13.5454 7.1404C13.5599 7.07877 13.5745 7.01732 13.5961 6.95839C13.5729 6.95839 13.5496 6.95839 13.5496 6.93501C13.3318 7.17674 12.9866 7.26835 12.6587 7.35536L12.6277 7.36358H12.5154C12.4031 7.41033 12.2443 7.41033 12.1319 7.3402C12.0785 7.31217 12.0404 7.27714 11.9993 7.2393C11.9718 7.21403 11.9429 7.18751 11.9073 7.16098C11.7252 7.048 11.547 6.95839 11.3456 6.88826C10.7839 6.70904 10.199 6.61553 9.61412 6.63891C9.77746 6.54907 9.95088 6.51334 10.1266 6.47714C10.2176 6.45839 10.3093 6.43952 10.4004 6.41294C10.458 6.39599 10.515 6.37852 10.5716 6.36114C10.8929 6.26265 11.2046 6.1671 11.547 6.18697C11.5022 6.17105 11.4448 6.1768 11.392 6.1821C11.3672 6.18458 11.3434 6.18697 11.3224 6.18697C11.0634 6.16767 10.8019 6.22533 10.529 6.28548C10.4712 6.29822 10.4129 6.31107 10.354 6.32333C10.2471 6.34557 10.1455 6.37751 10.0437 6.40951C9.93151 6.44476 9.81915 6.48008 9.69934 6.50255C9.64737 6.52047 9.60565 6.55098 9.56501 6.58071C9.49962 6.62853 9.43704 6.6743 9.3391 6.66229V6.59216C9.56376 6.31943 9.83491 6.0506 10.1952 6.02723C10.5434 5.97052 10.8717 6.01091 11.2142 6.05305C11.2718 6.06013 11.3297 6.06725 11.3882 6.07398C11.669 6.09657 11.9317 6.1592 12.2148 6.22669L12.2443 6.23372C12.3062 6.23372 12.3411 6.28827 12.3748 6.34111C12.4023 6.38404 12.429 6.42584 12.4689 6.43631C12.5241 6.45533 12.5792 6.45888 12.6344 6.46242C12.7148 6.46759 12.7952 6.47277 12.8756 6.52592C12.8756 6.51019 12.873 6.4949 12.8704 6.47976C12.8653 6.44989 12.8602 6.42058 12.8756 6.38956C12.9256 6.33929 12.9829 6.35278 13.0393 6.36606C13.0834 6.37645 13.127 6.38671 13.1662 6.36618C13.289 6.28995 13.1738 6.17293 13.0585 6.0558C13.0029 5.99932 12.9472 5.94283 12.9182 5.89086C12.9182 5.86749 12.9415 5.84411 12.9415 5.84411C12.9924 5.88971 13.0398 5.9369 13.0867 5.98369C13.2043 6.10078 13.3194 6.21532 13.4799 6.29606C13.5922 6.34281 13.8634 6.40904 13.8169 6.27268C13.7373 6.09607 13.6014 5.94291 13.4642 5.7883C13.4077 5.72462 13.351 5.66068 13.2979 5.59476V5.50515C13.2625 5.50515 13.2541 5.49166 13.2435 5.47494C13.2402 5.46964 13.2367 5.46402 13.232 5.4584V5.36879C13.1752 5.33899 13.1625 5.29178 13.1497 5.24431C13.1424 5.2173 13.1351 5.19021 13.1197 5.16619C13.0808 5.10327 13.0781 5.02586 13.0752 4.94605C13.0729 4.88255 13.0705 4.81753 13.0499 4.75711C13.0035 4.62074 12.9841 4.50776 12.9609 4.3714C12.9356 4.23189 12.9079 4.0985 12.8807 3.96791C12.8328 3.73744 12.7866 3.51566 12.7594 3.28439C12.7236 2.95382 12.8905 2.67425 13.0612 2.38846C13.1118 2.30374 13.1627 2.21846 13.2088 2.13115C13.3676 1.85843 13.5458 1.5896 13.8401 1.40648C13.9044 1.14049 14.0791 0.918965 14.253 0.69854L14.2662 0.681813C14.4379 0.467905 14.7245 0.337136 14.9357 0.240761L14.9596 0.229868C15.2734 0.0896097 15.5561 0 15.56 0H0V11.996H11.0396C11.3348 11.782 11.6283 11.6469 11.9775 11.4862C12.1369 11.4129 12.3079 11.3342 12.496 11.2402C12.5359 11.2201 12.5832 11.1968 12.6357 11.171C12.951 11.0159 13.4534 10.7687 13.6426 10.5817ZM10.1396 8.96329C10.0958 8.96769 10.0494 8.97235 10.0669 8.93716C10.0832 8.85831 10.1639 8.83467 10.2428 8.81158C10.2765 8.8017 10.31 8.79191 10.3378 8.77794L10.3505 8.77136L10.3598 8.76643C10.4035 8.74323 10.457 8.71483 10.4965 8.73134C10.5231 8.76919 10.5561 8.77895 10.5881 8.78845C10.612 8.79552 10.6353 8.80243 10.6551 8.82066C10.5714 8.90467 10.4737 8.91296 10.3747 8.92136C10.3089 8.92694 10.2425 8.93257 10.1791 8.96047C10.1678 8.96047 10.1538 8.96187 10.1396 8.96329ZM6.71263 8.41541C6.71263 8.43879 6.73587 8.46216 6.73587 8.46216C7.27817 7.85048 7.77011 7.32841 8.46735 6.89594C8.48601 6.88812 8.47907 6.89789 8.46984 6.91087C8.45609 6.93021 8.43727 6.95669 8.49059 6.9427C8.72141 6.89007 8.82508 6.69233 8.92594 6.49995C8.95202 6.45021 8.97791 6.40082 9.00577 6.35439C9.11155 6.18235 9.26178 6.07213 9.41317 5.96106C9.52234 5.88096 9.63212 5.80043 9.72625 5.69595C9.72625 5.71933 9.72625 5.74271 9.703 5.76608C9.72625 5.78946 9.74949 5.78946 9.77273 5.78946C9.81359 5.75863 9.8582 5.74587 9.90095 5.73364C9.95547 5.71805 10.007 5.70332 10.0439 5.6531C9.86569 5.58297 9.63715 5.55959 9.45897 5.62972C8.9864 5.85569 8.58355 6.21803 8.20007 6.62711C7.96766 6.87257 7.7275 7.10244 7.43311 7.26217C7.23169 7.66737 7.00702 8.0297 6.71263 8.41541ZM8.60369 6.9664C8.59155 6.99077 8.57942 7.00345 8.56783 7.01556C8.55726 7.02661 8.54714 7.0372 8.5379 7.05573C8.51468 7.10233 8.49147 7.12174 8.4489 7.14505C8.42568 7.14505 8.40246 7.14505 8.40246 7.12174C8.42568 7.03242 8.49147 6.9431 8.58047 6.9198C8.60369 6.92369 8.60369 6.94699 8.60369 6.9664ZM9.59422 10.4264C9.61357 10.4069 9.63679 10.3835 9.6484 10.3601C9.66775 10.3134 9.54778 10.3251 9.52843 10.3368C9.51087 10.3509 9.49969 10.365 9.4862 10.3821L9.48199 10.3874C9.46585 10.406 9.44696 10.4232 9.42778 10.4406C9.41477 10.4525 9.40163 10.4644 9.38912 10.477C9.33494 10.5316 9.28076 10.5861 9.22271 10.6368C9.18401 10.6718 9.30785 10.6874 9.33494 10.664C9.3659 10.6407 9.39299 10.6134 9.42008 10.5861C9.4304 10.5861 9.44072 10.5844 9.4476 10.5832L9.45233 10.5825L9.45491 10.5822C9.51906 10.5607 9.5668 10.516 9.61324 10.4726L9.62518 10.4614C9.64066 10.4459 9.62131 10.4303 9.59422 10.4264ZM9.24401 10.173C9.24357 10.1731 9.24326 10.1732 9.24304 10.1734C9.24256 10.1739 9.24256 10.1749 9.24256 10.1768C9.2188 10.1931 9.19535 10.2097 9.17194 10.2263C9.11139 10.2691 9.05116 10.3117 8.98691 10.3483C8.92546 10.3829 8.86246 10.4128 8.79889 10.4429C8.76226 10.4603 8.72545 10.4778 8.68864 10.4963C8.68864 10.4963 8.68864 10.4924 8.68477 10.4924C8.67702 10.4807 8.66153 10.4768 8.64604 10.4846C8.56082 10.5314 8.48722 10.5937 8.42137 10.6599C8.40975 10.6677 8.39813 10.6794 8.39038 10.6911L8.35552 10.7262V10.7301C8.34003 10.7457 8.32453 10.7612 8.30516 10.7846C8.30114 10.7887 8.29804 10.7927 8.29507 10.7966C8.28947 10.8039 8.2843 10.8107 8.27418 10.8158C8.25868 10.8236 8.21995 10.8236 8.22382 10.8002V10.7963C8.2122 10.8041 8.1967 10.8119 8.18508 10.8158C8.17927 10.8197 8.17346 10.8226 8.16765 10.8255C8.16184 10.8284 8.15603 10.8314 8.15022 10.8353C8.14635 10.8314 8.1386 10.8314 8.13473 10.8314C8.13085 10.8314 8.12311 10.8314 8.11923 10.8353C8.1102 10.8431 8.10116 10.8504 8.09212 10.8578C8.07404 10.8725 8.05597 10.8872 8.03789 10.9054C7.99141 10.9483 7.9488 10.995 7.90619 11.0457C7.90619 11.0457 7.90619 11.0495 7.90232 11.0495C7.90232 11.0515 7.90135 11.0525 7.90038 11.0534C7.89941 11.0544 7.89844 11.0554 7.89844 11.0573L7.8907 11.0651C7.88922 11.0666 7.8883 11.0681 7.88752 11.0694C7.88626 11.0714 7.88534 11.0729 7.88295 11.0729L7.87908 11.0768C7.8752 11.0846 7.87133 11.0924 7.86358 11.1002C7.85971 11.1041 7.85196 11.108 7.84421 11.108C7.84034 11.1041 7.83647 11.1002 7.83647 11.0963C7.83453 11.0944 7.83356 11.0924 7.83259 11.0905C7.83162 11.0885 7.83066 11.0866 7.82872 11.0846C7.82485 11.0788 7.82194 11.0729 7.81904 11.0671C7.81613 11.0612 7.81322 11.0554 7.80935 11.0495V11.0457C7.80935 11.0437 7.80838 11.0418 7.80741 11.0398C7.80645 11.0379 7.80548 11.0359 7.80548 11.034L7.8752 10.9521L7.87908 10.9483C7.88295 10.9444 7.88682 10.9395 7.89069 10.9346C7.89456 10.9298 7.89844 10.9249 7.90232 10.921C7.90813 10.9132 7.9149 10.9054 7.92168 10.8976C7.92846 10.8898 7.93524 10.882 7.94105 10.8742C7.94299 10.8703 7.94493 10.8674 7.94686 10.8645C7.9488 10.8616 7.95074 10.8586 7.95267 10.8547C7.97591 10.8236 7.99915 10.7924 8.0224 10.7573V10.7534C8.02627 10.7496 8.03014 10.7457 8.03014 10.7379C8.04176 10.7223 8.05339 10.7067 8.06113 10.6911L8.08437 10.6444V10.6405L8.08825 10.6366C8.08825 10.6346 8.08921 10.6336 8.09018 10.6327C8.09115 10.6317 8.09212 10.6307 8.09212 10.6288C8.09599 10.619 8.09986 10.6103 8.10373 10.6015C8.1076 10.5928 8.11149 10.584 8.11536 10.5742V10.5703L8.11923 10.5547C8.12117 10.5509 8.12214 10.547 8.12311 10.5431C8.12408 10.5392 8.12504 10.5353 8.12698 10.5314V10.5275C8.12892 10.5216 8.12989 10.5158 8.13085 10.5099C8.13182 10.5041 8.13279 10.4983 8.13473 10.4924C8.13473 10.4885 8.13473 10.4807 8.13085 10.4768C8.1541 10.434 8.18508 10.395 8.21995 10.356C8.21801 10.356 8.21607 10.357 8.21414 10.358C8.21303 10.3586 8.21191 10.3591 8.2108 10.3595C8.20998 10.3598 8.20915 10.3599 8.20833 10.3599C8.19108 10.3708 8.17624 10.3852 8.16113 10.4C8.14908 10.4117 8.13686 10.4236 8.12311 10.434C8.09987 10.4535 8.05338 10.4223 8.08437 10.3989C8.10374 10.3833 8.11923 10.3677 8.13472 10.3522C8.13472 10.3522 8.13473 10.3483 8.1386 10.3483C8.15404 10.3343 8.16887 10.3184 8.18381 10.3025C8.20635 10.2784 8.22919 10.254 8.25481 10.2353C8.28192 10.2158 8.30129 10.2002 8.32453 10.1807C8.3284 10.1768 8.33228 10.1729 8.33615 10.1729C8.35165 10.1535 8.36714 10.134 8.38651 10.1145C8.38651 10.1145 8.39038 10.1145 8.39038 10.1106C8.5234 9.98158 8.71032 9.93608 8.90111 9.88963C9.02144 9.86033 9.14332 9.83066 9.25418 9.77943C9.3168 9.75337 9.38663 9.76362 9.45564 9.77376C9.51044 9.78181 9.5647 9.78977 9.61442 9.77943C9.68027 9.77943 9.74999 9.77943 9.81584 9.82618C9.66268 9.90774 9.5165 10.001 9.37189 10.0933C9.33002 10.12 9.28817 10.1467 9.24643 10.1729C9.24535 10.1729 9.24457 10.1729 9.24401 10.173ZM9.72805 8.58508C9.70992 8.58716 9.69817 8.58851 9.70824 8.59864C9.77409 8.66488 9.90967 8.6415 10.0026 8.59085C10.0685 8.5441 10.1382 8.5441 10.2273 8.5441C10.2505 8.5441 10.2505 8.50124 10.2505 8.47787C10.3164 8.50124 10.3629 8.50124 10.4287 8.50124C10.9671 8.38826 11.4862 8.27527 11.982 8.02592C11.4803 7.63829 10.8618 7.46561 10.256 7.29649C10.1555 7.26843 10.0554 7.24047 9.95615 7.21164C9.97796 7.21164 9.99976 7.21891 10.0217 7.22622C10.066 7.24098 10.1109 7.25594 10.1576 7.21164C10.0961 7.16261 10.0277 7.15324 9.95993 7.14395C9.90384 7.13627 9.8482 7.12865 9.79733 7.09865C9.80264 7.09865 9.80895 7.09987 9.81582 7.1012C9.83902 7.10567 9.86849 7.11136 9.88643 7.07528C9.76876 7.0161 9.6511 6.99601 9.53232 6.97572C9.47123 6.96528 9.40984 6.9548 9.348 6.93892C9.46034 6.91554 9.53006 6.82593 9.53006 6.71294C9.53006 6.68957 9.48358 6.68957 9.46034 6.68957C9.19306 6.82593 9.01101 7.07528 8.89867 7.36748C8.99995 7.42711 9.10909 7.4202 9.21607 7.41342C9.27686 7.40957 9.33694 7.40577 9.39449 7.41424C9.34369 7.46248 9.27029 7.47559 9.19974 7.48818C9.17344 7.49288 9.14753 7.4975 9.12334 7.50385C9.05361 7.51943 8.98776 7.57008 9.01101 7.61683C9.0265 7.63631 9.04199 7.64411 9.06136 7.648C9.01101 7.66359 8.96452 7.68696 8.92191 7.72982C8.98568 7.78002 9.05144 7.77033 9.11634 7.76077C9.14211 7.75697 9.16774 7.7532 9.19306 7.7532C9.19306 7.78149 9.21164 7.7911 9.23095 7.8011C9.24088 7.80624 9.25102 7.81149 9.25891 7.81943C9.14658 7.86229 9.05749 7.95579 9.03425 8.02202C9.00648 8.08951 8.95522 8.13337 8.9044 8.17685C8.87015 8.20616 8.8361 8.23529 8.80958 8.27137V8.3415C8.73475 8.40784 8.65784 8.46708 8.58199 8.5255C8.42617 8.64551 8.27479 8.76211 8.15495 8.92981C8.17819 8.92981 8.17819 8.95319 8.17819 8.97656C8.15676 9.0089 8.12627 9.03129 8.09735 9.05253C8.06355 9.07736 8.0319 9.10061 8.01938 9.1363C8.01938 9.15968 8.01938 9.18305 8.04262 9.18305C8.18476 9.13608 8.30774 9.05698 8.42831 8.97944C8.53773 8.90907 8.64515 8.83998 8.7631 8.79734C8.85949 8.77416 8.94341 8.73045 9.02529 8.68781C9.09477 8.65163 9.16277 8.61621 9.23567 8.59475C9.29184 8.58306 9.35381 8.5665 9.41579 8.54994C9.47777 8.53338 9.53974 8.51683 9.59591 8.50514C9.59591 8.52851 9.59591 8.55189 9.61915 8.55189H9.79733C9.78636 8.57838 9.75175 8.58236 9.72805 8.58508Z" fill="#000091"/>
  <path d="M33 0H20.0966C20.0966 0 20.12 0.00390117 20.2175 0.0546164C20.3228 0.109233 20.4594 0.183355 20.5413 0.226268C20.709 0.312094 20.8689 0.421326 20.9743 0.589077C21.0211 0.655397 21.0874 0.791938 21.0445 0.881665C20.9977 0.994799 20.9743 1.17815 20.8611 1.22107C20.7246 1.29129 20.5452 1.29129 20.3853 1.26788C20.2955 1.26788 20.2058 1.24447 20.1122 1.22107C20.4516 1.35761 20.7714 1.51756 20.9977 1.83355C21.0211 1.88036 21.1108 1.89987 21.2005 1.89987C21.2239 1.89987 21.2239 1.94668 21.2239 1.96619C21.1771 2.013 21.1342 2.03641 21.1576 2.10273H21.2239C21.337 2.05592 21.3136 1.82965 21.4735 1.89987C21.5867 1.96619 21.6335 2.12614 21.5633 2.23927C21.4735 2.329 21.3838 2.39922 21.2902 2.46554C21.2668 2.51235 21.2668 2.57867 21.2902 2.62549C21.3565 2.71521 21.3799 2.80494 21.4033 2.89857C21.4735 3.05852 21.493 3.23797 21.5633 3.39792C21.653 3.73732 21.7427 4.07672 21.7232 4.42003C21.7232 4.59948 21.6335 4.75943 21.6998 4.94278C21.7466 5.12224 21.8597 5.25878 21.9494 5.41873C22.0391 5.55527 22.1288 5.64499 22.1991 5.78153C22.3356 6.0078 22.5852 6.23407 22.4721 6.50715C22.4058 6.6671 22.1562 6.64369 21.9962 6.73342C21.8597 6.84655 21.9728 7.02991 22.043 7.14304C22.1562 7.3459 21.9065 7.48245 21.7466 7.55267C21.7934 7.62289 21.8831 7.59948 21.9065 7.64239C21.9299 7.75553 22.043 7.82185 21.9728 7.93888C21.8831 8.07542 21.6101 8.14174 21.7466 8.34851C21.8363 8.50845 21.7778 8.68401 21.7232 8.84785C21.6569 9.05072 21.4735 9.14044 21.3136 9.18726C21.1771 9.23407 21.0172 9.23407 20.8845 9.21066C20.8377 9.18726 20.7948 9.16385 20.748 9.16385C20.3618 9.11703 19.9757 9.0078 19.5934 9.0078C19.4803 9.03121 19.3672 9.05072 19.2775 9.09753C19.176 9.17165 19.0824 9.25358 19.0044 9.3394C19.0044 9.3394 19.0044 9.3394 19.0005 9.3433C18.9849 9.36281 18.9654 9.37841 18.9498 9.39792C18.942 9.40962 18.9303 9.42133 18.9225 9.43303C18.9147 9.44083 18.9108 9.44864 18.903 9.45644C18.8367 9.53836 18.7782 9.62809 18.7236 9.71782C18.7197 9.72562 18.7158 9.72952 18.7119 9.73342C18.708 9.74512 18.7002 9.75293 18.6924 9.76463C18.6183 9.90117 18.5636 10.0416 18.5207 10.1821C18.3647 10.7009 18.4349 11.1456 18.5441 11.2549C18.5753 11.2861 19.2931 11.5085 19.7924 11.7308C20.0264 11.8362 20.1902 11.9142 20.3267 12H32.9961V0H33Z" fill="#E1000F"/>
  <path d="M20.8631 4.37477C20.9526 4.39814 21.0888 4.39814 21.0888 4.4449C21.0421 4.62411 20.7736 4.67087 20.6375 4.85398H20.5674C20.5013 4.90074 20.5208 5.01372 20.4546 5.01372C20.3885 4.99035 20.3185 5.01372 20.2523 5.0371C20.3418 5.12671 20.4546 5.19684 20.5908 5.17346C20.6141 5.17346 20.6569 5.22021 20.6569 5.26307C20.6569 5.26307 20.6803 5.26307 20.7036 5.23969C20.727 5.23969 20.7503 5.23969 20.7503 5.26307V5.35268C20.6842 5.44229 20.5674 5.39943 20.478 5.41891C20.6608 5.46567 20.8398 5.46567 20.9993 5.41891C21.1355 5.37216 20.9993 5.14619 21.0888 5.0332C21.0421 5.0332 21.0888 4.96307 21.0421 4.96307C21.0888 4.91632 21.1316 4.85009 21.1782 4.82671C21.2249 4.82671 21.2911 4.80333 21.3144 4.75658C21.3144 4.70983 21.2249 4.69035 21.2444 4.64359C21.3806 4.55399 21.4934 4.41762 21.4467 4.28126C21.4233 4.21113 21.2444 4.21113 21.1316 4.16827C21.0187 4.12542 20.8826 4.16827 20.7464 4.19165C20.6336 4.19165 20.5208 4.26178 20.4079 4.28126C20.2484 4.32801 20.1123 4.41762 19.98 4.50723C20.1395 4.441 20.2951 4.41762 20.478 4.37087C20.6141 4.37477 20.727 4.3436 20.8631 4.37477Z" fill="#808080"/>
  <path d="M1.236 27V18.6H3.804C5.652 18.6 6.792 19.548 6.792 21.108C6.792 22.128 6.3 22.884 5.436 23.28L8.064 27H6.06L3.816 23.604H2.94V27H1.236ZM3.9 20.016H2.94V22.188H3.9C4.62 22.188 5.04 21.768 5.04 21.084C5.04 20.448 4.62 20.016 3.9 20.016ZM12.5273 17.88H10.9793L12.3353 16.26H14.0873L12.5273 17.88ZM9.32334 27V18.6H14.2193V20.016H11.0273V22.008H13.7393V23.424H11.0273V25.584H14.2193V27H9.32334ZM16.3794 27V18.6H19.1514C20.9994 18.6 22.1274 19.548 22.1274 21.108C22.1274 22.656 20.9994 23.604 19.1514 23.604H18.0834V27H16.3794ZM19.2234 20.016H18.0834V22.188H19.2234C19.9434 22.188 20.3754 21.768 20.3754 21.084C20.3754 20.448 19.9434 20.016 19.2234 20.016ZM28.6705 23.856V18.6H30.3745V23.712C30.3745 25.92 29.0785 27.24 26.9665 27.24C24.8665 27.24 23.5705 25.92 23.5705 23.712V18.6H25.2745V23.856C25.2745 24.984 25.9105 25.644 26.9785 25.644C28.0225 25.644 28.6705 24.984 28.6705 23.856ZM32.6713 27V18.6H35.1433C36.8953 18.6 37.9633 19.464 37.9633 20.88C37.9633 21.564 37.6513 22.152 37.0633 22.536C37.9513 22.932 38.4433 23.652 38.4433 24.528C38.4433 26.064 37.2553 27 35.3233 27H32.6713ZM35.1793 20.016H34.3753V21.912H35.1793C35.8273 21.912 36.2113 21.564 36.2113 20.952C36.2113 20.364 35.8273 20.016 35.1793 20.016ZM35.4193 23.328H34.3753V25.584H35.4193C36.2113 25.584 36.6913 25.164 36.6913 24.456C36.6913 23.736 36.2113 23.328 35.4193 23.328ZM40.3719 27V18.6H42.0759V25.452H45.2679V27H40.3719ZM46.9476 27V18.6H48.6516V27H46.9476ZM58.2234 26.784C58.8714 27.372 59.4474 27.588 59.9874 27.588C60.1674 27.588 60.4074 27.564 60.5874 27.492V28.932C60.3114 29.04 60.0714 29.088 59.6994 29.088C58.7634 29.088 57.8994 28.704 57.0714 27.984L56.0754 27.096C55.7154 27.192 55.3314 27.24 54.9234 27.24C52.2714 27.24 50.4594 25.2 50.4594 22.8C50.4594 20.4 52.2714 18.36 54.9234 18.36C57.5634 18.36 59.3754 20.4 59.3754 22.8C59.3754 24.204 58.7514 25.488 57.7194 26.304L58.2234 26.784ZM54.9234 25.644C56.4954 25.644 57.6234 24.408 57.6234 22.8C57.6234 21.192 56.4954 19.956 54.9234 19.956C53.3394 19.956 52.2114 21.192 52.2114 22.8C52.2114 24.408 53.3394 25.644 54.9234 25.644ZM66.1424 23.856V18.6H67.8464V23.712C67.8464 25.92 66.5504 27.24 64.4384 27.24C62.3384 27.24 61.0424 25.92 61.0424 23.712V18.6H62.7464V23.856C62.7464 24.984 63.3824 25.644 64.4504 25.644C65.4944 25.644 66.1424 24.984 66.1424 23.856ZM70.1432 27V18.6H75.0392V20.016H71.8472V22.008H74.5592V23.424H71.8472V25.584H75.0392V27H70.1432ZM1.236 39V30.6H6.132V32.016H2.94V34.008H5.652V35.424H2.94V39H1.236ZM7.81163 39V30.6H10.3796C12.2276 30.6 13.3676 31.548 13.3676 33.108C13.3676 34.128 12.8756 34.884 12.0116 35.28L14.6396 39H12.6356L10.3916 35.604H9.51562V39H7.81163ZM10.4756 32.016H9.51562V34.188H10.4756C11.1956 34.188 11.6156 33.768 11.6156 33.084C11.6156 32.448 11.1956 32.016 10.4756 32.016ZM15.2062 39L18.3862 30.6H20.6183L23.7982 39H21.9863L21.1823 36.816H17.8223L17.0182 39H15.2062ZM18.3503 35.364H20.6543L19.5023 32.208L18.3503 35.364ZM25.2754 39V30.6H27.4594L31.2154 36.672V30.6H32.9194V39H30.7354L26.9794 32.928V39H25.2754ZM39.1927 37.644C40.1527 37.644 40.9087 37.176 41.3887 36.492L42.7327 37.524C42.0847 38.412 41.0767 39.036 39.8527 39.192L38.8087 40.932H37.2967L38.3527 39.168C36.1687 38.784 34.7287 36.936 34.7287 34.8C34.7287 32.4 36.5407 30.36 39.1927 30.36C40.7167 30.36 41.9647 31.044 42.7327 32.064L41.3887 33.108C40.9087 32.424 40.1527 31.956 39.1927 31.956C37.6087 31.956 36.4807 33.192 36.4807 34.8C36.4807 36.408 37.6087 37.644 39.1927 37.644ZM43.2769 39L46.4569 30.6H48.6889L51.8689 39H50.0569L49.2529 36.816H45.8929L45.0889 39H43.2769ZM46.4209 35.364H48.7249L47.5729 32.208L46.4209 35.364ZM53.346 39V30.6H55.05V39H53.346ZM56.8219 37.836L58.0579 36.696C58.5619 37.344 59.2339 37.728 59.9179 37.728C60.5899 37.728 60.9979 37.368 60.9979 36.768C60.9979 35.22 57.1819 35.64 57.1819 32.796C57.1819 31.464 58.2859 30.36 59.8939 30.36C61.1539 30.36 62.1139 30.924 62.8339 31.776L61.5859 32.904C61.0939 32.268 60.5419 31.848 59.9059 31.848C59.3059 31.848 58.9099 32.232 58.9099 32.736C58.9099 34.26 62.7259 33.828 62.7259 36.708C62.7019 38.292 61.4779 39.24 59.9299 39.24C58.5139 39.24 57.5659 38.724 56.8219 37.836ZM64.6926 39V30.6H69.5886V32.016H66.3966V34.008H69.1086V35.424H66.3966V37.584H69.5886V39H64.6926Z" fill="#161616"/>
  <path fill-rule="evenodd" clip-rule="evenodd" d="M31.18 60.614L30.0638 61.6339H29.7758L30.4359 60.47H31.18V60.614ZM30.3759 64.5614H30.1359C29.8358 64.9214 29.4998 65.2093 29.1757 65.2093C28.8397 65.2093 28.6717 65.0054 28.6717 64.5614C28.6717 64.3814 28.6957 64.1894 28.7317 64.0214L30.688 63.3735C31.072 62.4615 30.6159 62.0655 30.0759 62.0655C29.1517 62.0655 28.0956 63.6854 28.0956 64.9814C28.0956 65.5933 28.3836 65.9293 28.8397 65.9293C29.3678 65.9173 29.9198 65.4013 30.3759 64.5614ZM29.7046 62.5938C29.9686 62.5938 30.1966 62.7978 30.0766 63.2658L28.8644 63.5898C29.0565 63.0138 29.4165 62.5938 29.7046 62.5938ZM25.8886 62.6175H26.5367L25.5045 65.4494C25.4085 65.6893 25.5405 65.9293 25.7925 65.9293C26.5247 65.9293 27.4008 65.3054 27.7368 64.4174H27.5568C27.2928 64.7894 26.7167 65.1974 26.2846 65.2694L27.2328 62.6175H28.2049L28.3249 62.2095H27.3768L27.7368 61.1896H27.3648L26.6927 62.2095L25.8886 62.3175V62.6175ZM24.9878 62.0782C25.1198 62.0782 25.2998 62.2222 25.2158 62.4862L24.0516 65.306C24.3517 65.258 24.6637 64.9701 24.8438 64.7061H25.0358C24.7597 65.414 24.1356 65.93 23.5956 65.93C23.4636 65.93 23.2715 65.786 23.3675 65.522L24.4477 62.7022C24.1477 62.7502 23.8356 63.0382 23.6556 63.3022H23.4756C23.7516 62.5822 24.4237 62.0782 24.9878 62.0782ZM25.3246 61.3579C25.5647 61.3579 25.7687 61.166 25.7687 60.914C25.7687 60.674 25.5647 60.47 25.3246 60.47C25.0726 60.47 24.8806 60.674 24.8806 60.914C24.8806 61.154 25.0846 61.3579 25.3246 61.3579ZM20.0797 63.6981C20.3437 63.1222 20.2477 62.8582 20.0797 62.8582C19.9357 62.8582 19.7676 63.0142 19.5996 63.3022H19.4196C19.6956 62.6902 20.0557 62.0782 20.4517 62.0782C20.7878 62.0782 20.9078 62.4142 20.9078 62.7862V63.3142C20.9618 63.2513 21.0144 63.1896 21.0658 63.1294L21.0667 63.1282L21.0675 63.1274C21.5745 62.5324 21.9617 62.0782 22.408 62.0782C22.7561 62.0782 22.9361 62.2942 22.9361 62.6182C22.9361 62.8102 22.8761 63.0502 22.7441 63.3022L21.7479 65.306C22.048 65.258 22.36 64.9701 22.54 64.7061H22.7201C22.444 65.426 21.7719 65.93 21.2079 65.93C20.9558 65.93 20.8118 65.666 20.9198 65.45L22.072 63.2302C22.204 62.9782 22.228 62.8102 22.024 62.8102C21.7479 62.8102 21.0998 63.2662 20.7518 63.6861L19.9957 65.678C19.9117 65.882 19.8277 65.93 19.6356 65.93C19.3236 65.93 19.1676 65.726 19.3116 65.402L20.0797 63.6981ZM19.2987 62.9295C19.4307 62.4735 19.3587 62.0655 19.0106 62.0655C18.5766 62.0655 18.4407 62.3521 18.02 63.2392L17.9905 63.3015V62.7735C17.9905 62.4015 17.8705 62.0655 17.5344 62.0655C17.1384 62.0655 16.7783 62.6775 16.5023 63.2895H16.6823C16.8743 63.0135 17.0544 62.8455 17.1984 62.8455C17.3664 62.8455 17.4624 63.1095 17.1984 63.6854L16.4303 65.3893C16.2863 65.7133 16.4423 65.9173 16.7543 65.9173C16.9464 65.9173 17.0304 65.8693 17.1144 65.6653L17.8705 63.6734C18.0865 63.4095 18.2785 63.1815 18.5186 62.9295H19.2987ZM15.5064 63.2658C15.6264 62.7978 15.3984 62.5938 15.1344 62.5938C14.8463 62.5938 14.4863 63.0138 14.2942 63.5898L15.5064 63.2658ZM15.8057 64.5614H15.5657C15.2656 64.9214 14.9296 65.2093 14.6055 65.2093C14.2695 65.2093 14.1015 65.0054 14.1015 64.5614C14.1015 64.3814 14.1255 64.1894 14.1615 64.0214L16.1178 63.3735C16.5018 62.4615 16.0458 62.0655 15.5057 62.0655C14.5815 62.0655 13.5254 63.6854 13.5254 64.9814C13.5254 65.5933 13.8134 65.9293 14.2695 65.9293C14.7976 65.9173 15.3497 65.4013 15.8057 64.5614ZM11.9665 62.6175H11.3184V62.3175L12.1225 62.2095L12.7946 61.1896H13.1666L12.8066 62.2095H13.7547L13.6347 62.6175H12.6626L11.7144 65.2694C12.1465 65.1974 12.7226 64.7894 12.9866 64.4174H13.1666C12.8306 65.3054 11.9545 65.9293 11.2224 65.9293C10.9703 65.9293 10.8383 65.6893 10.9343 65.4494L11.9665 62.6175ZM7.88648 64.8137C7.88648 63.9377 8.85862 62.7618 9.3987 62.7618C9.51871 62.7618 9.63873 62.7738 9.73475 62.8098L9.17066 64.3217C8.84662 64.7177 8.34254 65.1976 8.10251 65.1976C7.97049 65.1976 7.88648 65.0776 7.88648 64.8137ZM10.5632 61.8859L10.8632 61.9099L9.81906 64.3097C9.56702 64.8857 9.67504 65.1497 9.81906 65.1497C9.96308 65.1497 10.1431 64.9817 10.3351 64.7057H10.5152C10.2391 65.3177 9.87907 65.9296 9.48301 65.9296C9.14696 65.9296 8.94293 65.5696 9.00294 64.9217L9.02694 64.6937L8.96158 64.785C8.53167 65.3859 8.14265 65.9296 7.74276 65.9296C7.39471 65.9296 7.21468 65.7136 7.21468 65.3896C7.21468 63.9977 8.7389 62.2218 10.1671 62.2218H10.2271L10.5632 61.8859ZM7.81402 62.9295C7.94604 62.4735 7.87403 62.0655 7.52598 62.0655C7.09192 62.0655 6.956 62.3521 6.53537 63.2392L6.50583 63.3015V62.7735C6.50583 62.4015 6.38581 62.0655 6.04976 62.0655C5.65371 62.0655 5.29365 62.6775 5.01761 63.2895H5.19764C5.38967 63.0135 5.56969 62.8455 5.70171 62.8455C5.86974 62.8455 5.96575 63.1095 5.70171 63.6854L4.9336 65.4013C4.78958 65.7253 4.9456 65.9293 5.25765 65.9293C5.44968 65.9293 5.53369 65.8813 5.6177 65.6773L6.37381 63.6854C6.58984 63.4215 6.78187 63.1935 7.0219 62.9415H7.81402V62.9295ZM2.86842 65.5686L2.79641 65.7846H0L0.0720104 65.5566C0.936136 65.4006 1.08016 65.3286 1.44021 64.3567L2.22032 62.2688C2.56837 61.2968 2.49636 61.2248 1.74025 61.0689L1.81226 60.8529H5.44879L5.23276 62.0168H4.96872C4.96872 61.3208 4.89671 61.1409 4.23661 61.1409H4.06859C3.4205 61.1409 3.33648 61.2368 3.15646 61.7408L2.64038 63.1447H3.39649C3.90056 63.1447 4.09259 62.8328 4.32063 62.4248H4.58466L3.96057 64.1287H3.69654C3.75654 63.6127 3.75654 63.4087 3.28848 63.4087H2.53237L2.18432 64.3687C1.80809 65.3678 1.9156 65.3882 2.81149 65.5578C2.83013 65.5613 2.8491 65.5649 2.86842 65.5686Z" fill="black"/>
  <path fill-rule="evenodd" clip-rule="evenodd" d="M5.24476 51.4341L4.12857 52.2385V52.2505H3.84052L4.50063 51.29H5.24476V51.4341ZM13.0472 57.0648L14.8355 52.3104L14.7755 52.2384L13.5393 52.3824V52.5265L13.7793 52.7066C13.9843 52.866 13.93 53.0147 13.76 53.4804L13.7313 53.559L12.3631 57.2088C12.2551 57.4249 12.3991 57.6891 12.6511 57.6891C13.2152 57.6891 13.8153 57.1728 14.0914 56.4645H13.9114C13.7193 56.7286 13.3353 57.0167 13.0472 57.0648ZM21.2438 53.4029L22.36 52.3824V52.2384H21.6159L20.9558 53.4029H21.2438ZM21.315 56.3204H21.5551C21.111 57.1728 20.5589 57.689 20.0308 57.689C19.5747 57.689 19.2867 57.3529 19.2867 56.7406C19.2867 55.4439 20.3429 53.8231 21.267 53.8231C21.7951 53.8231 22.2632 54.2193 21.8791 55.1318L19.9108 55.7801C19.8748 55.9482 19.8508 56.1403 19.8508 56.3204C19.8508 56.7646 20.0188 56.9687 20.3549 56.9687C20.6789 56.9687 21.015 56.6805 21.315 56.3204ZM21.2544 55.0238C21.3745 54.5675 21.1464 54.3634 20.8824 54.3634C20.6063 54.3634 20.2463 54.7836 20.0422 55.3479L21.2544 55.0238ZM17.7258 54.3872H17.0777V54.087L17.8818 53.979L18.554 52.9585H18.926L18.566 53.979H19.5141L19.3941 54.3872H18.4219L17.4738 57.0405C17.9058 56.9684 18.4819 56.5602 18.746 56.188H18.926C18.59 57.0765 17.7138 57.7008 16.9817 57.7008C16.7296 57.7008 16.5976 57.4607 16.6936 57.2206L17.7258 54.3872ZM16.4055 54.2431C16.4775 53.9789 16.3095 53.8349 16.1655 53.8349C15.6014 53.8349 14.9292 54.3511 14.6532 55.0595H14.8332C15.0133 54.7953 15.3253 54.5072 15.6254 54.4592L14.5452 57.2806C14.4492 57.5447 14.6412 57.6888 14.7732 57.6888C15.3133 57.6888 15.9374 57.1725 16.2135 56.4642H16.0334C15.8534 56.7283 15.5413 57.0164 15.2413 57.0645L16.4055 54.2431ZM16.9585 52.6826C16.9585 52.9227 16.7544 53.1268 16.5144 53.1268C16.2744 53.1268 16.0703 52.9227 16.0703 52.6826C16.0703 52.4425 16.2624 52.2384 16.5144 52.2384C16.7544 52.2384 16.9585 52.4425 16.9585 52.6826ZM10.8987 54.5315C10.3586 54.5315 9.38641 55.7081 9.38641 56.5845C9.38641 56.8486 9.47043 56.9687 9.61445 56.9687C9.84249 56.9687 10.3466 56.4885 10.6706 56.0923L11.2347 54.5795C11.1267 54.5435 11.0187 54.5315 10.8987 54.5315ZM12.3632 53.6791L12.0632 53.6551L11.7271 53.9913H11.6671C10.2389 53.9913 8.71459 55.7681 8.71459 57.1608C8.71459 57.485 8.89463 57.7011 9.24269 57.7011C9.64259 57.7011 10.0316 57.157 10.4616 56.5558L10.5269 56.4645L10.5029 56.6926C10.4429 57.3409 10.6469 57.7011 10.983 57.7011C11.3791 57.7011 11.7391 57.0888 12.0152 56.4765H11.8351C11.6431 56.7526 11.4631 56.9207 11.3191 56.9207C11.175 56.9207 11.067 56.6566 11.3191 56.0803L12.3632 53.6791ZM6.3135 57.5691C5.79741 57.7732 5.43734 58.0133 5.43734 58.3855C5.43734 58.7337 5.7614 58.8778 6.43352 58.8778C7.33368 58.8778 7.82576 58.6136 7.82576 58.2655C7.82576 58.1094 7.62173 58.0374 7.08163 57.8573C6.73357 57.7492 6.48153 57.6532 6.3135 57.5691ZM6.91282 56.0923C6.67277 56.0923 6.58876 55.8882 6.58876 55.6721C6.58876 54.9758 6.92482 54.1114 7.46491 54.1114C7.70495 54.1114 7.78897 54.3155 7.78897 54.5316C7.77697 55.2399 7.44091 56.0923 6.91282 56.0923ZM7.3701 57.2208C8.03022 57.4249 8.43829 57.581 8.43829 58.0372C8.43829 58.6255 7.3581 59.3218 6.04987 59.3098C5.29374 59.3098 4.64563 59.1057 4.64563 58.6135C4.64563 58.1453 5.0777 57.7611 6.13389 57.4489C5.98986 57.3529 5.92985 57.2328 5.92985 57.0647C5.92985 56.7766 6.1939 56.5485 6.64998 56.3324C6.2059 56.2723 5.91785 55.9362 5.91785 55.4439C5.91785 54.6876 6.54196 53.8231 7.52613 53.8231C7.73017 53.8231 7.9102 53.8712 8.05422 53.9672H9.13441L9.01439 54.3754H8.37828C8.41429 54.4835 8.43829 54.6035 8.43829 54.7356C8.43829 55.4679 7.85019 56.3084 6.91402 56.3564C6.67398 56.4885 6.55396 56.6685 6.55396 56.8126C6.55396 56.9821 6.75029 57.0395 7.1842 57.1661C7.24193 57.183 7.30387 57.2011 7.3701 57.2208ZM3.56462 55.1679C4.03271 55.1679 4.04471 55.372 3.9727 55.8882H4.23674L4.86085 54.1834H4.59681C4.36877 54.5916 4.17673 54.9038 3.67264 54.9038H2.64046L3.14455 53.4991C3.32458 52.9948 3.4086 52.8988 4.05671 52.8988H4.51279C5.17291 52.8988 5.24492 53.0789 5.24492 53.7752H5.50897L5.725 52.6106H1.81232L1.7403 52.8267C2.49644 52.9828 2.56845 53.0548 2.22039 54.0273L1.44025 56.1284C1.08019 57.1008 0.936164 57.1729 0.0600105 57.329L0 57.5571H4.34476L5.1249 56.3205H4.82484C4.32076 56.8127 3.81667 57.2689 2.8325 57.2689C1.74998 57.2689 1.76926 57.2159 2.09407 56.3234C2.11497 56.2659 2.13715 56.205 2.16038 56.1404L2.52044 55.1799H3.56462V55.1679Z" fill="black"/>
  <path fill-rule="evenodd" clip-rule="evenodd" d="M7.14964 44.8876C7.3896 44.8876 7.59356 44.6837 7.59356 44.4438C7.59356 44.2039 7.3896 44 7.14964 44C6.89769 44 6.70573 44.2039 6.70573 44.4438C6.70573 44.6957 6.89769 44.8876 7.14964 44.8876ZM10.7022 46.3986C10.7022 45.8229 10.5583 45.607 10.1503 45.607C9.64644 45.607 9.17853 46.1467 8.71062 46.7944L9.71843 44.0956L9.65844 44.0117L8.42268 44.1556V44.2996L8.66263 44.4795C8.87155 44.6419 8.81099 44.8044 8.63302 45.2818L8.61464 45.3311L7.52285 48.1858C7.42687 48.4257 7.31889 48.7136 7.31889 48.7856C7.31889 49.1214 7.7748 49.4453 8.19472 49.4453C9.13054 49.4573 10.7022 47.73 10.7022 46.3986ZM21.1042 45.1752L22.22 44.1556V44.0117H21.4761L20.8163 45.1752H21.1042ZM21.1765 48.0899H21.4164C20.9605 48.9415 20.4086 49.4573 19.8807 49.4453C19.4248 49.4453 19.1369 49.1214 19.1369 48.5097C19.1369 47.2143 20.1927 45.595 21.1165 45.595C21.6444 45.595 22.1123 45.9908 21.7284 46.9024L19.7727 47.5501C19.7368 47.7181 19.7128 47.91 19.7128 48.0899C19.7128 48.5337 19.8807 48.7376 20.2167 48.7376C20.5406 48.7376 20.8765 48.4497 21.1765 48.0899ZM21.1153 46.7945C21.2353 46.3387 21.0073 46.1348 20.7434 46.1348C20.4555 46.1348 20.0955 46.5546 19.9036 47.1184L21.1153 46.7945ZM17.5747 46.1595H16.9268V45.8596L17.7306 45.7516L18.4025 44.7321H18.7744L18.4145 45.7516H19.3623L19.2423 46.1595H18.2705L17.3227 48.8103C17.7546 48.7383 18.3305 48.3305 18.5945 47.9587H18.7744C18.4385 48.8463 17.5627 49.47 16.8308 49.47C16.5789 49.47 16.4469 49.2301 16.5429 48.9902L17.5747 46.1595ZM16.5931 46.4713C16.7251 46.0155 16.6531 45.6077 16.3052 45.6077C15.8713 45.6077 15.7354 45.8942 15.3149 46.7809L15.2854 46.8431V46.3154C15.2854 45.9435 15.1654 45.6077 14.8295 45.6077C14.4336 45.6077 14.0736 46.2194 13.7977 46.8311H13.9776C14.1696 46.5553 14.3496 46.3873 14.4815 46.3873C14.6495 46.3873 14.7455 46.6512 14.4815 47.227L13.7137 48.9302C13.5697 49.2541 13.7257 49.458 14.0376 49.458C14.2296 49.458 14.3136 49.41 14.3976 49.2061L15.1534 47.215C15.3694 46.9511 15.5613 46.7232 15.8013 46.4713H16.5931ZM12.7902 46.7945C12.9101 46.3387 12.6822 46.1348 12.4182 46.1348C12.1303 46.1348 11.7823 46.5546 11.5784 47.1184L12.7902 46.7945ZM13.0893 48.0899H12.8494C12.5495 48.4497 12.2135 48.7376 11.8896 48.7376C11.5536 48.7376 11.3857 48.5337 11.3857 48.0899C11.3857 47.91 11.4097 47.7181 11.4457 47.5501L13.4013 46.9024C13.7852 45.9908 13.3293 45.595 12.7894 45.595C11.8656 45.595 10.8098 47.2143 10.8098 48.5097C10.8098 49.1214 11.0977 49.4453 11.5536 49.4453C12.0815 49.4573 12.6334 48.9415 13.0893 48.0899ZM8.05122 48.5461C8.05122 48.702 8.32717 48.882 8.51913 48.882C9.29898 48.882 10.0308 47.4786 10.0188 46.6989C10.0188 46.435 9.88686 46.3271 9.7069 46.3271C9.41896 46.3271 8.89106 46.7589 8.55512 47.1667L8.24318 48.0064C8.13521 48.2822 8.05122 48.4981 8.05122 48.5461ZM6.79168 45.6077C6.93565 45.6077 7.10362 45.7516 7.03163 46.0155L5.87986 48.8343C6.1798 48.7863 6.49174 48.4984 6.6717 48.2345H6.85167C6.57572 48.9422 5.95184 49.458 5.41195 49.458C5.26798 49.458 5.07601 49.314 5.172 49.0502L6.25179 46.2314C5.95184 46.2794 5.63991 46.5673 5.45994 46.8311H5.27997C5.55592 46.1235 6.22779 45.6077 6.79168 45.6077ZM1.81165 44.3602H4.39115L4.31916 44.5881C3.44333 44.744 3.29936 44.816 2.93943 45.7876L2.17158 47.8986C1.79965 48.9062 1.89563 49.0261 2.5555 49.0261C3.37077 49.0261 3.90535 48.4337 4.37213 47.9164C4.40681 47.878 4.44111 47.84 4.47513 47.8027H4.77507L3.92324 49.314H0L0.071986 49.0981C0.935818 48.9422 1.07979 48.8702 1.43972 47.8986L2.21957 45.7756C2.5675 44.804 2.49552 44.732 1.73966 44.5761L1.81165 44.3602Z" fill="black"/>
</svg>
