<svg width="40" height="40" viewBox="0 0 40 40" fill="none" xmlns="http://www.w3.org/2000/svg">
<g id="linkedin-box">
<path id="Ic&#195;&#180;ne" d="M6.66667 5H33.3333C33.7754 5 34.1993 5.17559 34.5118 5.48816C34.8244 5.80072 35 6.22464 35 6.66667V33.3333C35 33.7754 34.8244 34.1993 34.5118 34.5118C34.1993 34.8244 33.7754 35 33.3333 35H6.66667C6.22464 35 5.80072 34.8244 5.48816 34.5118C5.17559 34.1993 5 33.7754 5 33.3333V6.66667C5 6.22464 5.17559 5.80072 5.48816 5.48816C5.80072 5.17559 6.22464 5 6.66667 5ZM8.33333 8.33333V31.6667H31.6667V8.33333H8.33333ZM12.5 15C11.837 15 11.2011 14.7366 10.7322 14.2678C10.2634 13.7989 10 13.163 10 12.5C10 11.837 10.2634 11.2011 10.7322 10.7322C11.2011 10.2634 11.837 10 12.5 10C13.163 10 13.7989 10.2634 14.2678 10.7322C14.7366 11.2011 15 11.837 15 12.5C15 13.163 14.7366 13.7989 14.2678 14.2678C13.7989 14.7366 13.163 15 12.5 15ZM10.8333 16.6667H14.1667V29.1667H10.8333V16.6667ZM20 17.3833C20.9733 16.4417 22.11 15.8333 23.3333 15.8333C26.785 15.8333 29.1667 18.6317 29.1667 22.0833V29.1667H25.8333V22.0833C25.8333 21.3098 25.526 20.5679 24.9791 20.0209C24.4321 19.474 23.6902 19.1667 22.9167 19.1667C22.1431 19.1667 21.4013 19.474 20.8543 20.0209C20.3073 20.5679 20 21.3098 20 22.0833V29.1667H16.6667V16.6667H20V17.3833Z" fill="#000091"/>
</g>
</svg>
