<svg width="28" height="26" viewBox="0 0 28 26" fill="none" xmlns="http://www.w3.org/2000/svg">
<path d="M11.3334 0H16.6667C19.4957 0 22.2088 1.12381 24.2092 3.12419C26.2096 5.12458 27.3334 7.83769 27.3334 10.6667C27.3334 13.4956 26.2096 16.2088 24.2092 18.2091C22.2088 20.2095 19.4957 21.3333 16.6667 21.3333V26C10.0001 23.3333 0.666748 19.3333 0.666748 10.6667C0.666748 7.83769 1.79055 5.12458 3.79094 3.12419C5.79133 1.12381 8.50444 0 11.3334 0ZM14.0001 18.6667H16.6667C17.7173 18.6667 18.7576 18.4597 19.7282 18.0577C20.6988 17.6557 21.5807 17.0664 22.3236 16.3235C23.0665 15.5807 23.6557 14.6987 24.0578 13.7281C24.4598 12.7575 24.6667 11.7172 24.6667 10.6667C24.6667 9.61609 24.4598 8.5758 24.0578 7.6052C23.6557 6.63459 23.0665 5.75268 22.3236 5.00981C21.5807 4.26694 20.6988 3.67767 19.7282 3.27563C18.7576 2.87359 17.7173 2.66667 16.6667 2.66667H11.3334C9.21168 2.66667 7.17685 3.50952 5.67656 5.00981C4.17627 6.5101 3.33341 8.54494 3.33341 10.6667C3.33341 15.48 6.61608 18.6213 14.0001 21.9733V18.6667Z" fill="#6A6AF4"/>
<path d="M13.6001 15.3333L10.7364 10.6667L13.6001 6H10.5092L7.60008 10.6667L10.5092 15.3333H13.6001ZM19.6001 15.3333L16.7364 10.6667L19.6001 6H16.5092L13.6001 10.6667L16.5092 15.3333H19.6001Z" fill="#6A6AF4"/>
</svg>
